<?xml version="1.0" encoding="UTF-8" standalone="no"?>
<!--
 Licensed to the Apache Software Foundation (ASF) under one or more
  contributor license agreements.  See the NOTICE file distributed with
  this work for additional information regarding copyright ownership.
  The ASF licenses this file to You under the Apache License, Version 2.0
  (the "License"); you may not use this file except in compliance with
  the License.  You may obtain a copy of the License at

       http://www.apache.org/licenses/LICENSE-2.0

  Unless required by applicable law or agreed to in writing, software
  distributed under the License is distributed on an "AS IS" BASIS,
  WITHOUT WARRANTIES OR CONDITIONS OF ANY KIND, either express or implied.
  See the License for the specific language governing permissions and
  limitations under the License.
-->

<svg
   id="body"
   width="223"
   height="72"
   version="1.1"
   sodipodi:docname="gump-logo-original.svg"
   inkscape:version="1.2.2 (b0a8486541, 2022-12-01)"
   xmlns:inkscape="http://www.inkscape.org/namespaces/inkscape"
   xmlns:sodipodi="http://sodipodi.sourceforge.net/DTD/sodipodi-0.dtd"
   xmlns:xlink="http://www.w3.org/1999/xlink"
   xmlns="http://www.w3.org/2000/svg"
   xmlns:svg="http://www.w3.org/2000/svg">
  <sodipodi:namedview
     id="namedview4002"
     pagecolor="#ffffff"
     bordercolor="#000000"
     borderopacity="0.25"
     inkscape:showpageshadow="2"
     inkscape:pageopacity="0.0"
     inkscape:pagecheckerboard="0"
     inkscape:deskcolor="#d1d1d1"
     showgrid="false"
     inkscape:zoom="6.161435"
     inkscape:cx="90.644469"
     inkscape:cy="36.111718"
     inkscape:window-width="1920"
     inkscape:window-height="1011"
     inkscape:window-x="0"
     inkscape:window-y="0"
     inkscape:window-maximized="1"
     inkscape:current-layer="body" />
  <rect
     id="background"
     x="0"
     y="0"
     width="250"
     height="80"
     rx="0"
     transform="scale(0.892 0.892)"
     style="fill:rgb(41,69,99);stroke-miterlimit:1" />
  <title
     id="title3">Bench, Forest Gump</title>
  <defs
     id="defs52">
    <g
       id="post">
      <rect
         width="20"
         height="150"
         style="fill:rgb(208,196,192)"
         id="rect5" />
      <path
         d="M0 0 L3 -3 L23 -3 L20 0 z"
         style="fill:rgb(156,147,144)"
         id="path7" />
      <path
         d="M20 0 L23 -3 L23 147 L20 150 z"
         style="fill:rgb(104,98,96)"
         id="path9" />
    </g>
    <g
       id="foot">
      <rect
         width="20"
         height="10"
         style="fill:rgb(208,196,192)"
         id="rect12" />
      <path
         d="M0 0 L30 -30 L50 -30 L20 0 z"
         style="fill:rgb(156,147,144)"
         id="path14" />
      <path
         d="M20 0 L50 -30 L50 -20 L20 10 z"
         style="fill:rgb(104,98,96)"
         id="path16" />
    </g>
    <g
       id="back">
      <rect
         width="300"
         height="10"
         style="fill:rgb(120,60,30)"
         id="rect19" />
      <path
         d="M0 0 L3 -3 L303 -3 L300 0 z"
         style="fill:rgb(90,45,20)"
         id="path21" />
      <path
         d="M300 0 L303 -3 L303 7 L300 10 z"
         style="fill:rgb(60,30,10)"
         id="path23" />
    </g>
    <g
       id="seat">
      <rect
         width="300"
         height="5"
         style="fill:rgb(120,60,30)"
         id="rect26" />
      <path
         d="M0 0 L5 -5 L305 -5 L300 0 z"
         style="fill:rgb(90,45,20)"
         id="path28" />
      <path
         d="M300 0 L305 -5 L305 0 L300 5 z"
         style="fill:rgb(60,30,10)"
         id="path30" />
    </g>
    <g
       id="box">
      <title
         id="title33">Box of Chocolates</title>
      <rect
         width="45"
         height="15"
         style="fill:rgb(240,240,255)"
         id="rect35" />
      <path
         d="M0 0 L25 -25 L70 -25 L45 0 z"
         style="fill:rgb(220,220,240)"
         id="path37" />
      <path
         d="M45 0 L70 -25 L70 -10 L45 15 z"
         style="fill:rgb(200,200,220)"
         id="path39" />
      <rect
         x="20"
         width="5"
         height="15"
         style="fill:rgb(255,0,0)"
         id="rect41" />
      <path
         d="M20 0 L45 -25 L50 -25 L25 0 z"
         style="fill:rgb(255,32,32)"
         id="path43" />
      <path
         d="M10 -10 L15 -15 L60 -15 L55 -10 z"
         style="fill:rgb(255,32,32)"
         id="path45" />
      <path
         d="M55 -10 L60 -15 L60 0 L55 5 z"
         style="fill:rgb(255,64,64)"
         id="path47" />
      <path
         d="M35 -10 C35 -10 -5 -40 35 -16 M35 -10 C35 -10 95 -40 35 -16"
         style="fill:none;stroke:rgb(255,0,0);stroke-width:2"
         id="path49" />
    </g>
  </defs>
  <filter
     id="MyFilter"
     x="-0.029538462"
     y="-0.054390935"
     width="1.0713846"
     height="1.1314448">
    <feGaussianBlur
       in="SourceAlpha"
       stdDeviation="4"
       result="blur"
       id="feGaussianBlur54" />
    <feOffset
       in="blur"
       dx="4"
       dy="4"
       result="offsetBlur"
       id="feOffset56" />
    <feComposite
       in="blur"
       in2="SourceAlpha"
       operator="in"
       result="blur"
       id="feComposite58" />
    <feComposite
       in="SourceGraphic"
       in2="blur"
       operator="arithmetic"
       k1="0"
       k2="1"
       k3="1"
       k4="0"
       result="litPaint"
       id="feComposite60" />
    <feMerge
       id="feMerge66">
      <feMergeNode
         in="offsetBlur"
         id="feMergeNode62" />
      <feMergeNode
         in="litPaint"
         id="feMergeNode64" />
    </feMerge>
  </filter>
  <g
     transform="scale(0.892 0.892)"
     style="fill:rgb(255,255,255)"
     id="g79">
    <path
       transform="translate(43 21) translate(-15 -4) translate(37 2) translate(46 -2) translate(-18 -2) translate(-120 18) translate(0 -1) translate(0 -1) translate(0 -1) translate(0 -1) translate(0 -1) translate(0 -13) translate(11 1) translate(-1 0) translate(-1 0) translate(0 1) translate(0 1) translate(0 1) translate(0 1) translate(-1 0) translate(-1 0) translate(-1 0) translate(-1 0) translate(-1 0) translate(-1 0) translate(-1 0) translate(-1 0) translate(-1 0) translate(-1 0)"
       d="M54.752 10.096 L54.032 11.152 L52.976 9.904 L53.792 9.232 zM51.152 27.904 L49.76     27.904 L49.904 27.568 zM59.984 23.68 L59.216 23.392 L58.208 23.968 L58.304 24.496     L58.928 24.832 L59.984 24.592 C59.824 25.168 59.392 25.568 58.688 25.792     C58.048 25.888 57.424 26 56.816 26.128 C56.4 26.224 56.136 26.616 56.024     27.304 C55.912 27.992 55.632 28.336 55.184 28.336 C55.024 28.336 54.832 28.304     54.608 28.24 L54.416 28.624 L54.608 29.104 L55.184 29.488 L55.568 29.488     L56.048 30.016 C55.504 30.24 54.976 30.544 54.464 30.928 L54.848 31.792 L54.608     33.232 L54.8 33.664 C55.472 33.792 55.792 34.096 55.76 34.576 L55.712 35.248     L55.568 35.248 C55.632 35.472 55.664 35.68 55.664 35.872 C55.664 36.224     55.44 36.584 54.992 36.952 C54.544 37.32 54.32 37.664 54.32 37.984 L54.896     38.896 L54.224 39.952 C53.552 39.408 52.784 39.072 51.92 38.944 L52.112 38.464     L51.392 37.456 L50.768 37.504 L50.192 37.984 L50.288 38.464 L49.808 39.184     C48.656 39.728 47.488 40 46.304 40 C45.632 40 45.072 39.808 44.624 39.424     L43.712 39.856 C42.592 39.568 41.984 39.424 41.888 39.424 C41.632 39.424 41.392     39.488 41.168 39.616 C41.104 39.488 40.656 39.232 39.824 38.848 C39.216     38.592 38.96 38.24 39.056 37.792 L38.576 37.168 L38.72 36.88 L38.336 36.88 L37.952     36.736 L38.576 36.208 L37.904 36.016 L37.904 35.872 L38.144 35.728 L38.432     35.392 L38.384 35.008 L38.048 34.624 L37.424 34.672 L36.8 35.104 L36.224     34.768 C36.128 34.544 36.096 34.256 36.128 33.904 L36.224 33.04 C36.224 32.592     35.792 32.384 34.928 32.416 C34.8 31.904 34.664 31.368 34.52 30.808 C34.376     30.248 34.08 29.904 33.632 29.776 C33.888 29.584 34.048 29.328 34.112     29.008 C34.176 28.816 34.176 28.528 34.112 28.144 C34.08 27.664 34.064 27.376     34.064 27.28 L34.496 26.272 C34.048 25.792 33.488 25.488 32.816 25.36 C33.2     25.168 33.728 24.768 34.4 24.16 L34.256 23.728 L33.776 23.248 L33.536 22.528     L34.064 21.472 L33.296 20.8 L34.304 19.984 L33.776 18.352 L34.256 17.344     L33.872 16.288 L34.4 15.808 L35.264 15.952 L35.792 15.904 L36.08 15.232 C36.048     15.04 35.832 14.896 35.432 14.8 C35.032 14.704 34.832 14.512 34.832 14.224     L34.88 14.08 C35.488 14.016 36.016 13.712 36.464 13.168 L36.464 11.728 L36.8     11.776 C37.312 11.776 37.664 11.616 37.856 11.296 C37.92 11.168 38.048 10.768     38.24 10.096 L38.816 9.664 L39.92 9.76 L40.832 9.232 L42.368 9.712 L42.752     9.664 L42.992 9.28 L42.992 8.896 L42.176 8.08 L43.04 7.792 C43.232 7.792     43.528 7.856 43.928 7.984 C44.328 8.112 44.624 8.176 44.816 8.176 C45.008     8.176 45.168 8.144 45.296 8.08 L45.296 8.992 L45.584 9.424 L45.92 9.424 L46.976     8.848 L47.744 9.616 L49.424 9.76 C50.192 9.792 50.688 9.936 50.912 10.192     L52.16 10 L52.064 10.432 L52.352 11.968 L53.36 12.4 L53.984 11.728 L54.704     12.352 L54.128 13.84 L54.656 14.608 L54.128 15.712 L54.272 16.096 L55.328 16.672     C54.688 17.088 54.256 17.536 54.032 18.016 L54.08 18.256 L55.328 18.784     L55.328 18.928 C54.72 18.896 54.128 19.216 53.552 19.888 L53.024 19.552 C52.928     19.584 52.816 19.6 52.688 19.6 C52.24 19.6 51.536 19.344 50.576 18.832     C51.056 18.608 51.296 18.112 51.296 17.344 C51.328 16.288 51.376 15.68 51.44     15.52 C51.376 15.488 50.944 15.264 50.144 14.848 C49.6 14.592 49.232 14.288     49.04 13.936 L49.232 13.216 C48.528 13.216 47.504 13.088 46.16 12.832 C45.84     12.704 45.504 12.392 45.152 11.896 C44.8 11.4 44.48 11.088 44.192 10.96 L43.28     11.776 L43.664 12.448 C43.248 12.672 42.24 12.784 40.64 12.784 L39.584     13.024 L39.008 13.792 L39.728 14.272 L38.816 15.232 L37.568 14.992 L37.136     15.808 L37.28 16.768 L36.656 17.584 L36.896 18.304 L36.656 19.648 L37.136 20.512     L37.136 21.088 L36.512 21.904 L35.36 21.52 L35.264 22.144 L35.984 22.48     L36.56 22.144 C36.592 22.432 36.648 22.896 36.728 23.536 C36.808 24.176 36.848     24.656 36.848 24.976 L36.56 26.224 L36.032 25.792 L35.552 25.744 L34.976     26.752 L35.072 27.136 L35.648 27.328 L36.656 27.088 L36.464 27.664 C36.464     27.952 36.664 28.32 37.064 28.768 C37.464 29.216 37.664 29.6 37.664 29.92 L36.848     30.832 C37.04 31.12 37.448 31.384 38.072 31.624 C38.696 31.864 39.104     32.08 39.296 32.272 L38.912 33.04 L39.152 33.856 L39.584 34.144 L39.584 34 L40.16     34 L40.16 34.336 L39.68 34.288 L39.2 34.72 L39.152 35.008 L39.344 35.632     L39.92 36.064 L41.456 35.536 L42.08 36.208 L42.752 36.352 L43.472 35.824     C44.464 36.208 45.808 36.4 47.504 36.4 C48.528 36.4 49.392 36.128 50.096 35.584     L51.008 35.872 L51.392 35.488 L51.44 35.248 L50.288 34.384 L51.2 34 L51.632     33.424 L51.344 32.8 L50.48 32.224 C51.312 32 51.84 31.584 52.064 30.976     C51.744 30.272 51.648 29.488 51.776 28.624 L50.624 27.904 C51.2 27.68 51.584     27.264 51.776 26.656 L51.632 26.176 L50.432 25.888 C50.048 25.888 49.496 25.968     48.776 26.128 C48.056 26.288 47.504 26.368 47.12 26.368 L45.056 25.936     L45.008 24.112 L45.2 22.96 C45.68 22.768 46.384 22.688 47.312 22.72 C48.368     22.784 49.104 22.752 49.52 22.624 C50.416 22.944 51.2 23.104 51.872 23.104 L52.976     22.96 L53.456 22.48 L53.552 21.952 C53.456 21.888 53.056 21.76 52.352     21.568 C51.808 21.44 51.504 21.216 51.44 20.896 L52.592 20.992 L53.6 20.416     C53.792 20.928 53.92 21.536 53.984 22.24 C54.016 22.496 54.176 22.624 54.464     22.624 C54.528 22.624 54.752 22.624 55.136 22.624 C55.52 22.592 55.904 22.576     56.288 22.576 C56.768 22.576 57.44 22.704 58.304 22.96 L59.744 22.816 zM50.528     13.456 L50.336 13.456 L50.336 13.648 C50.4 13.616 50.464 13.552 50.528     13.456 zM48.464 11.584 L48.464 11.392 L48.176 11.392 L48.176 11.584 zM46.112     12.208 L46.112 11.728 L45.632 11.728 L45.632 12.208 zM56.96 24.64 L56.96     24.592 C56.928 24.56 56.88 24.528 56.816 24.496 L56.816 24.64 zM40.544 11.536     C40.544 11.056 40.336 10.816 39.92 10.816 C39.632 10.816 39.392 10.992 39.2     11.344 C39.2 11.536 39.312 11.664 39.536 11.728 L40.064 11.92 C40.384 11.856     40.544 11.728 40.544 11.536 zM55.088 26.704 C54.928 26.704 54.816 26.736     54.752 26.8 C54.88 26.928 54.992 26.992 55.088 26.992 zM51.68 24.736 C51.68     24.32 51.456 24.128 51.008 24.16 L50.816 24.16 C50.496 24.16 50.336 24.288 50.336     24.544 C50.336 24.864 50.512 25.024 50.864 25.024 C50.928 25.024 50.992     25.008 51.056 24.976 C51.152 25.008 51.232 25.024 51.296 25.024 C51.552 25.024     51.68 24.928 51.68 24.736 zM49.472 24.736 C49.472 24.256 49.168 24.016     48.56 24.016 C48.112 24.016 47.808 24.16 47.648 24.448 C47.712 24.544 47.832     24.688 48.008 24.88 C48.184 25.072 48.496 25.168 48.944 25.168 C49.296 25.168     49.472 25.024 49.472 24.736 zM38 13.456 C38 13.232 37.888 13.12 37.664 13.12     C37.216 13.12 36.992 13.296 36.992 13.648 C37.12 13.84 37.376 13.936 37.76     13.936 C37.92 13.936 38 13.808 38 13.552 zM52.976 28.48 C52.944 28.416 52.864     28.384 52.736 28.384 C52.384 28.384 52.208 28.512 52.208 28.768 C52.208     28.96 52.416 29.056 52.832 29.056 C52.928 29.056 52.976 28.976 52.976 28.816     zM46.448 24.688 C46.224 24.528 46 24.448 45.776 24.448 C45.552 24.448 45.408     24.592 45.344 24.88 L45.584 25.168 L45.68 25.168 C45.872 25.2 46.128 25.04     46.448 24.688 zM54.128 35.632 C54 35.472 53.792 35.392 53.504 35.392 C53.088     35.392 52.832 35.52 52.736 35.776 C52.8 35.936 53.136 36.064 53.744 36.16     C53.872 36 54 35.824 54.128 35.632 zM35.12 17.632 L35.12 17.2 L34.64 17.2 L34.64     17.632 zM35.744 19.552 C35.744 19.456 35.728 19.376 35.696 19.312 C35.408     19.312 35.056 19.408 34.64 19.6 C34.736 19.952 34.96 20.128 35.312 20.128     C35.6 19.904 35.744 19.712 35.744 19.552 zM35.648 23.968 C35.584 23.904 35.52     23.872 35.456 23.872 C35.232 23.872 35.104 24.048 35.072 24.4 L35.504 24.4     C35.6 24.304 35.648 24.16 35.648 23.968 zM44.576 37.36 C44.512 37.296 44.4     37.264 44.24 37.264 L44.24 37.696 L44.432 37.696 C44.528 37.696 44.576 37.584     44.576 37.36 zM38.624 33.088 C38.624 32.832 38.496 32.704 38.24 32.704 C37.76     32.704 37.504 32.896 37.472 33.28 L37.568 33.376 L38.096 33.376 C38.448     33.376 38.624 33.28 38.624 33.088 zM35.936 30.928 C35.936 30.736 35.808 30.64     35.552 30.64 C35.136 30.64 34.896 30.784 34.832 31.072 C34.992 31.296 35.2     31.408 35.456 31.408 C35.776 31.408 35.936 31.248 35.936 30.928 zM40.784     37.648 C40.784 37.392 40.632 37.232 40.328 37.168 C40.024 37.104 39.728 37.04     39.44 36.976 C39.312 37.104 39.248 37.248 39.248 37.408 C39.248 37.664 39.52     38.016 40.064 38.464 z"
       id="path71" />
    <path
       transform="translate(43 21) translate(-15 -4) translate(37 2) translate(46 -2) translate(-18 -2) translate(-120 18) translate(0 -1) translate(0 -1) translate(0 -1) translate(0 -1) translate(0 -1) translate(0 -13) translate(11 1) translate(-1 0) translate(-1 0) translate(0 1) translate(0 1) translate(0 1) translate(0 1) translate(-1 0) translate(-1 0) translate(-1 0) translate(-1 0) translate(-1 0) translate(-1 0) translate(-1 0) translate(-1 0) translate(-1 0) translate(-1 0)"
       d="M69.728 17.488 L69.344 17.488 L69.344 17.104 L69.728 17.104 zM88.208 37.696 L88.112     38.224 L87.392 37.504 C87.2 37.664 87.04 38.048 86.912 38.656 C86.816 39.104     86.48 39.36 85.904 39.424 L83.84 39.616 L83.888 39.328 C83.888 38.976 83.632     38.592 83.12 38.176 L82.448 38.704 L82.976 39.616 C82.304 39.584 81.856     39.536 81.632 39.472 C81.216 39.312 81.008 38.96 81.008 38.416 L80.672 37.984     L80.096 38.32 C80.064 38.32 79.552 37.92 78.56 37.12 C78.4 37.312 78.064     37.872 77.552 38.8 L77.072 37.648 C76.336 37.68 75.968 38.128 75.968 38.992     C75.968 39.472 75.568 39.776 74.768 39.904 C73.776 40.064 73.216 40.192 73.088     40.288 L72.416 39.904 L71.024 40.336 L70.304 39.904 C70.656 39.264 70.832     38.8 70.832 38.512 L70.64 37.888 L70.064 37.792 L68.864 39.424 C68.736 38.784     68.496 38.352 68.144 38.128 C67.536 38.16 67.088 38.128 66.8 38.032 L66.464     37.408 L66.56 36.88 C66.56 36.976 66.416 36.4 66.128 35.152 L66.608 34.288     L66.464 33.52 L65.312 33.184 C65.312 32.992 65.264 32.704 65.168 32.32 C65.072     31.936 65.024 31.632 65.024 31.408 L65.168 30.736 L65.696 30.784 C66.176     30.816 66.544 30.64 66.8 30.256 L66.8 29.584 L66.512 29.056 L65.936 29.248     C65.616 29.6 65.36 29.952 65.168 30.304 L65.168 25.12 L65.984 25.936 L66.512     26.032 L66.992 24.976 L66.752 24.352 L66.272 24.16 L65.216 24.592 C65.088     24.144 65.056 23.584 65.12 22.912 C65.216 21.952 65.264 21.392 65.264 21.232     C65.264 20.656 65.024 20.24 64.544 19.984 L63.248 20.176 L62.192 19.552 C62.416     19.104 62.688 18.368 63.008 17.344 L63.92 17.488 C64.272 17.488 64.776     17.416 65.432 17.272 C66.088 17.128 66.592 17.056 66.944 17.056 C67.584 17.056     68.176 17.264 68.72 17.68 L68.144 18.016 L68 18.592 L68.96 18.832 L69.248     18.592 L69.824 18.592 C69.472 19.392 69.408 20.4 69.632 21.616 L68.384 21.952     L67.808 22.528 C67.936 22.816 68 23.168 68 23.584 C68 23.776 67.984 24.04     67.952 24.376 C67.92 24.712 67.904 24.96 67.904 25.12 C67.904 25.664 68.048     26.08 68.336 26.368 C68.272 26.496 68.064 26.832 67.712 27.376 C67.776 27.696     67.976 27.904 68.312 28 C68.648 28.096 68.816 28.272 68.816 28.528 L68.576     28.768 L67.856 29.056 L67.568 29.44 C67.696 30.208 68.144 30.752 68.912 31.072     L68.336 31.936 L68.912 33.184 L68.384 33.184 C68.16 33.184 67.84 33.44     67.424 33.952 C67.872 34.88 68.816 35.344 70.256 35.344 L70.256 35.488 L69.92     36.16 L70.352 36.496 L70.64 36.256 L70.784 35.584 C71.136 36 71.344 36.416     71.408 36.832 L71.408 38.224 L71.552 39.136 L72.512 39.472 L73.04 38.752 L72.704     37.36 C72.704 37.008 72.912 36.832 73.328 36.832 C73.488 36.832 73.712     36.864 74 36.928 C74.288 36.992 74.464 37.024 74.528 37.024 C75.072 37.024     75.408 36.832 75.536 36.448 C75.6 36.224 75.6 35.792 75.536 35.152 L75.92 35.152     L75.92 35.584 C75.888 36.224 76.144 36.624 76.688 36.784 C77.04 36.4 77.248     35.744 77.312 34.816 C77.408 33.696 77.536 32.976 77.696 32.656 C78.208     32.56 78.584 32.464 78.824 32.368 C79.064 32.272 79.36 32.08 79.712 31.792     C80 30.8 80.144 29.664 80.144 28.384 C80.144 27.648 80.08 26.576 79.952 25.168     C79.824 23.76 79.76 22.704 79.76 22 C79.248 21.872 78.648 21.456 77.96 20.752     C77.272 20.048 76.688 19.632 76.208 19.504 L75.776 18.544 L75.824 18.304     L77.072 18.928 C77.424 18.928 77.688 18.664 77.864 18.136 C78.04 17.608 78.272     17.36 78.56 17.392 L79.04 18.352 C79.616 18.256 80.128 18.128 80.576 17.968     L81.248 18.352 C81.504 17.968 81.936 17.488 82.544 16.912 L83.264 17.2     L82.592 18.304 C82.688 18.4 83.2 18.784 84.128 19.456 L83.456 20.272 C83.712     20.464 83.976 20.672 84.248 20.896 C84.52 21.12 84.656 21.376 84.656 21.664     L84.128 21.616 C83.232 21.552 82.784 21.856 82.784 22.528 C82.784 22.944 83.112     23.24 83.768 23.416 C84.424 23.592 84.784 23.824 84.848 24.112 L84.368     24.064 L83.456 24.304 L82.976 25.024 C83.232 25.824 83.232 26.656 82.976 27.52     L83.456 28 L84.464 28 C84.08 28.288 83.52 28.768 82.784 29.44 L83.216 30.256     C83.152 30.576 82.96 31.136 82.64 31.936 L82.736 32.32 L83.216 32.656 L84.176     32.512 L84.656 32.896 L84.608 33.904 L84.752 34.624 L85.28 35.056 L84.8     35.44 L84.8 35.968 L84.896 36.496 L85.232 36.784 L85.664 36.784 L86.192 36.592     L86.192 35.776 L86.336 35.776 C86.368 36.096 86.688 36.408 87.296 36.712     C87.904 37.016 88.208 37.344 88.208 37.696 zM82.208 20.368 C82.176 19.792     81.792 19.504 81.056 19.504 C80.672 19.504 80.48 19.696 80.48 20.08 C80.896     20.592 81.296 20.848 81.68 20.848 C81.744 20.848 81.792 20.848 81.824 20.848     C81.952 20.688 82.08 20.528 82.208 20.368 zM81.632 22.384 C81.632 22.288 81.584     22.192 81.488 22.096 C80.976 22.096 80.72 22.224 80.72 22.48 C80.72 22.544     80.72 22.608 80.72 22.672 C80.848 22.8 81.072 22.944 81.392 23.104 C81.552     22.592 81.632 22.352 81.632 22.384 zM81.824 25.12 L81.824 24.688 C81.696     24.496 81.568 24.4 81.44 24.4 C81.056 24.4 80.832 24.752 80.768 25.456 L81.68     25.6 L81.632 25.504 C81.76 25.408 81.824 25.28 81.824 25.12 zM82.016 29.728     C82.016 29.28 81.856 29.056 81.536 29.056 C81.312 29.056 81.08 29.136 80.84     29.296 C80.6 29.456 80.48 29.632 80.48 29.824 C80.48 30.016 80.624 30.112     80.912 30.112 L81.68 30.112 C81.904 29.92 82.016 29.792 82.016 29.728 zM84.128     33.568 C83.936 33.312 83.68 33.184 83.36 33.184 C83.296 33.184 83.232 33.184     83.168 33.184 L82.976 34.096 C83.264 34.416 83.504 34.576 83.696 34.576     C83.984 34.576 84.128 34.4 84.128 34.048 zM69.008 20.656 C69.008 20.336 68.864     20.176 68.576 20.176 C68.416 20.176 68.288 20.256 68.192 20.416 C68.128 20.512     68.16 20.64 68.288 20.8 L68.576 20.896 C68.864 20.96 69.008 20.88 69.008     20.656 zM83.264 36.4 L83.264 36.064 L83.12 36.064 L83.12 36.4 zM66.8 27.424     C66.8 27.2 66.72 26.96 66.56 26.704 C66.464 26.544 66.304 26.464 66.08 26.464     C66.176 26.464 66.064 26.496 65.744 26.56 L65.744 27.712 L66.512 27.712     C66.704 27.712 66.8 27.616 66.8 27.424 zM75.344 38.416 C75.312 38.096 75.136     37.936 74.816 37.936 C74.336 37.936 74.096 38.16 74.096 38.608 C74.096 38.992     74.32 39.184 74.768 39.184 C74.896 39.184 75.088 38.928 75.344 38.416 zM66.464     31.84 C66.464 31.52 66.304 31.36 65.984 31.36 C65.632 31.36 65.456 31.52     65.456 31.84 C65.456 31.936 65.536 32.056 65.696 32.2 C65.856 32.344 65.984     32.416 66.08 32.416 C66.112 32.416 66.144 32.416 66.176 32.416 C66.432 32.16     66.528 31.968 66.464 31.84 z"
       id="path73" />
    <path
       transform="translate(43 21) translate(-15 -4) translate(37 2) translate(46 -2) translate(-18 -2) translate(-120 18) translate(0 -1) translate(0 -1) translate(0 -1) translate(0 -1) translate(0 -1) translate(0 -13) translate(11 1) translate(-1 0) translate(-1 0) translate(0 1) translate(0 1) translate(0 1) translate(0 1) translate(-1 0) translate(-1 0) translate(-1 0) translate(-1 0) translate(-1 0) translate(-1 0) translate(-1 0) translate(-1 0) translate(-1 0) translate(-1 0)"
       d="M118.496 40.336 L118.496 40.528 C117.792 40.336 116.728 40.288 115.304 40.384 C113.88     40.48 112.816 40.448 112.112 40.288 C111.92 39.84 111.728 39.368 111.536     38.872 C111.344 38.376 111.072 38.032 110.72 37.84 C110.912 37.072 111.312     36.688 111.92 36.688 C112.208 36.688 112.624 36.768 113.168 36.928 L113.408     36.448 L113.36 35.776 L112.64 35.776 C113.44 35.392 113.84 34.768 113.84 33.904     L113.312 32.56 L113.6 31.408 L113.264 31.216 L112.544 31.36 C112.608 31.136     112.816 30.856 113.168 30.52 C113.52 30.184 113.744 29.904 113.84 29.68     L113.696 29.248 L111.968 28.336 L112.736 28.432 L113.696 28.048 L112.88 26.848     L113.696 25.648 C113.44 25.072 112.976 24.848 112.304 24.976 L111.584 24.544     C111.552 24.288 111.536 23.52 111.536 22.24 L111.344 20.992 L110.624 20.128     L109.28 20.896 L109.328 20.512 L109.136 20.32 C108.56 20.416 108.032 20.752     107.552 21.328 L106.88 20.704 L105.968 20.56 L105.728 21.088 L106.208 22.672     L105.776 23.488 C105.936 23.968 106.32 24.256 106.928 24.352 L106.928     24.496 L105.824 24.88 L106.016 26.512 L105.584 27.28 C105.712 27.696 105.696     28.544 105.536 29.824 L106.016 30.88 C105.76 32.064 105.632 32.88 105.632 33.328     C105.632 34.192 105.952 34.912 106.592 35.488 L106.064 35.872 L105.872     36.4 L106.16 36.784 L107.024 36.976 L107.888 36.544 L109.04 37.84 L108.176     38.56 L107.792 39.664 C106.224 40.08 104.8 40.24 103.52 40.144 L103.28 40.48     L102.272 39.568 L100.928 40.24 L100.208 39.904 C100.304 39.264 100.464 38.704     100.688 38.224 L100.016 37.504 C100.208 37.248 100.656 37.032 101.36 36.856     C102.064 36.68 102.512 36.416 102.704 36.064 L102.512 35.344 L100.784 35.728     C101.2 35.504 101.808 35.136 102.608 34.624 L102.608 28.48 C102.8 28.384     103.36 28.336 104.288 28.336 L104.912 28.192 L105.248 27.712 L104.912 27.088     C104.432 27.024 103.696 26.928 102.704 26.8 C102.576 26.48 102.512 25.776     102.512 24.688 C102.512 23.088 102.208 21.728 101.6 20.608 C100.672 20.608 99.744     20.608 98.816 20.608 C97.696 20.736 96.976 21.168 96.656 21.904 C95.824     22.352 95.328 22.672 95.168 22.864 C94.848 23.184 94.688 23.712 94.688 24.448     C94.688 29.792 95.008 33.824 95.648 36.544 L96.416 36.208 C96.544 36.272     96.8 36.512 97.184 36.928 C97.568 37.344 97.92 37.568 98.24 37.6 C98.816 38.368     99.104 39.024 99.104 39.568 L98.864 40.336 L98.72 39.76 L98.432 39.664     C97.44 40.112 95.584 40.336 92.864 40.336 L91.904 39.616 L92.144 39.28 L91.952     39.04 C91.664 39.552 91.2 39.808 90.56 39.808 L89.888 39.664 L89.504 38.464     C89.504 38.016 89.936 37.504 90.8 36.928 C91.664 36.352 92.096 35.792 92.096     35.248 C92.096 34.32 92.136 32.936 92.216 31.096 C92.296 29.256 92.336 27.872     92.336 26.944 C92.336 25.056 92.208 23.776 91.952 23.104 C91.856 22.88     91.544 22.712 91.016 22.6 C90.488 22.488 90.176 22.288 90.08 22 C90.464 21.968     90.944 21.728 91.52 21.28 L91.184 20.56 L90.272 20.608 L89.552 20.272 L89.504     19.648 C89.472 19.392 89.728 18.832 90.272 17.968 C91.296 17.936 92.8     17.904 94.784 17.872 C96.576 17.808 97.792 17.552 98.432 17.104 L99.296 17.488     L99.632 18.112 L100.304 18.256 L100.064 17.824 L100.304 17.248 L100.64 17.104     C101.568 17.488 102.176 17.68 102.464 17.68 C102.656 17.68 102.8 17.648     102.896 17.584 C103.12 17.936 103.536 18.352 104.144 18.832 L104.432 18.064     L105.728 17.776 L105.68 18.88 C105.648 19.36 105.856 19.68 106.304 19.84 L106.928     19.648 C107.12 18.784 107.4 18.176 107.768 17.824 C108.136 17.472 108.736     17.296 109.568 17.296 C110.976 17.296 112.064 17.488 112.832 17.872 C113.344     18.128 114.16 18.8 115.28 19.888 L114.992 20.704 C114.992 21.28 115.344     21.808 116.048 22.288 C116.048 23.888 116.152 26.288 116.36 29.488 C116.568     32.688 116.672 35.088 116.672 36.688 C116.672 37.296 117.056 37.6 117.824     37.6 L118.112 38.32 L116.96 38.032 L116.576 38.224 L116.336 38.656 L117.248     39.616 L118.208 38.944 C118.432 39.392 118.528 39.856 118.496 40.336 zM110.672     39.616 C110.512 39.84 110.256 39.952 109.904 39.952 L109.904 39.424 C109.968     39.488 110.064 39.568 110.192 39.664 C110.32 39.664 110.432 39.664 110.528     39.664 zM115.568 22.912 C115.472 22.784 115.328 22.72 115.136 22.72 C114.848     22.72 114.704 22.832 114.704 23.056 C114.704 23.472 114.928 23.728 115.376     23.824 C115.504 23.728 115.568 23.584 115.568 23.392 zM110.912 19.264 C110.912     18.848 110.784 18.608 110.528 18.544 C110.336 18.608 110.24 18.768 110.24     19.024 C110.24 19.184 110.272 19.296 110.336 19.36 zM115.424 25.552 C115.424     25.52 115.424 25.456 115.424 25.36 C115.392 25.232 115.376 25.152 115.376     25.12 L115.088 25.12 L115.088 25.792 L115.328 25.792 C115.392 25.728 115.424     25.648 115.424 25.552 zM109.184 19.312 C109.184 18.8 108.992 18.544 108.608     18.544 C108.352 18.544 108.224 18.688 108.224 18.976 C108.224 19.104 108.24     19.184 108.272 19.216 L108.224 19.216 C108.544 19.536 108.752 19.696 108.848     19.696 C109.072 19.696 109.184 19.568 109.184 19.312 zM113.456 23.44 C113.456     23.248 113.232 23.088 112.784 22.96 C112.592 23.056 112.496 23.216 112.496     23.44 C112.496 23.696 112.608 23.824 112.832 23.824 C112.864 23.824 112.944     23.792 113.072 23.728 C113.2 23.664 113.296 23.616 113.36 23.584 C113.424     23.552 113.456 23.504 113.456 23.44 zM115.616 29.536 C115.616 29.376 115.52     29.296 115.328 29.296 L115.184 29.296 C114.992 29.296 114.896 29.488 114.896     29.872 C114.896 30.032 114.96 30.112 115.088 30.112 C115.44 30.112 115.616     29.92 115.616 29.536 zM115.616 31.984 C115.616 31.664 115.44 31.504 115.088     31.504 C115.024 31.504 114.96 31.504 114.896 31.504 L114.896 32.464 C114.96     32.496 115.04 32.512 115.136 32.512 C115.456 32.512 115.616 32.336 115.616     31.984 zM102.032 18.688 C101.968 18.592 101.856 18.544 101.696 18.544 L101.696     19.216 L101.888 19.216 C101.984 19.216 102.032 19.152 102.032 19.024 zM115.472     34.192 C115.472 34.096 115.432 34.016 115.352 33.952 C115.272 33.888     115.2 33.856 115.136 33.856 C114.816 33.856 114.656 34.032 114.656 34.384     C114.656 34.448 114.672 34.512 114.704 34.576 L114.992 34.576 C115.312 34.576     115.472 34.448 115.472 34.192 zM104.432 23.296 C104.368 23.2 104.272 23.152     104.144 23.152 L103.76 23.152 L103.76 23.824 L104 23.824 C104.128 23.728 104.272     23.552 104.432 23.296 zM104.624 25.648 C104.624 25.168 104.368 24.928     103.856 24.928 C103.472 24.928 103.28 25.184 103.28 25.696 C103.28 26.08 103.52     26.272 104 26.272 C104.192 26.272 104.344 26.184 104.456 26.008 C104.568     25.832 104.624 25.712 104.624 25.648 zM97.52 19.408 L97.52 19.168 L97.472     19.168 L97.472 19.408 zM95.888 18.688 C95.6 18.464 95.472 18.352 95.504 18.352     C95.184 18.352 95.024 18.592 95.024 19.072 C95.024 19.136 95.024 19.184 95.024     19.216 C95.152 19.344 95.296 19.456 95.456 19.552 C95.744 19.488 95.888     19.2 95.888 18.688 zM93.728 18.832 C93.504 18.608 93.344 18.512 93.248 18.544     L93.2 18.544 C93.136 18.608 93.104 18.672 93.104 18.736 C93.104 18.704 93.216     18.864 93.44 19.216 C93.472 19.216 93.504 19.216 93.536 19.216 C93.6 19.216     93.664 19.088 93.728 18.832 zM104.864 29.584 C104.864 29.52 104.848 29.44     104.816 29.344 C104.656 29.248 104.448 29.2 104.192 29.2 C103.488 29.2 103.136     29.504 103.136 30.112 C103.136 30.272 103.184 30.432 103.28 30.592 L103.856     30.592 C104.048 30.592 104.264 30.48 104.504 30.256 C104.744 30.032 104.864     29.808 104.864 29.584 zM104.912 32.272 C104.912 32.016 104.768 31.792     104.48 31.6 C104.192 31.408 103.936 31.312 103.712 31.312 C103.328 31.312 103.136     31.568 103.136 32.08 C103.136 32.24 103.184 32.352 103.28 32.416 L103.328     32.416 C103.52 32.416 103.736 32.504 103.976 32.68 C104.216 32.856 104.368     32.944 104.432 32.944 C104.752 32.944 104.912 32.72 104.912 32.272 zM94.016     23.536 C94.016 23.44 93.968 23.328 93.872 23.2 C93.776 23.072 93.6 23.008     93.344 23.008 C92.96 23.008 92.768 23.152 92.768 23.44 C92.768 23.472 92.784     23.52 92.816 23.584 C93.104 23.904 93.28 24.064 93.344 24.064 C93.792 24.064     94.016 23.888 94.016 23.536 zM93.92 25.792 L93.92 25.504 C93.92 25.472 93.76     25.44 93.44 25.408 L93.44 25.792 zM107.168 38.512 C107.168 38.352 107.056     38.272 106.832 38.272 C106.608 38.272 106.496 38.432 106.496 38.752 C106.496     38.976 106.576 39.12 106.736 39.184 C107.024 38.896 107.168 38.672 107.168     38.512 zM104.816 36.496 L104.816 36.448 C104.4 36.096 104.112 35.92 103.952     35.92 L103.952 36.784 C103.984 36.784 104.064 36.784 104.192 36.784 C104.32     36.816 104.416 36.832 104.48 36.832 C104.704 36.832 104.816 36.72 104.816     36.496 zM94.544 27.856 C94.544 27.44 94.368 27.232 94.016 27.232 C93.76 27.232     93.44 27.376 93.056 27.664 C93.056 27.696 93.056 27.728 93.056 27.76 C93.056     27.888 93.168 28.08 93.392 28.336 C93.616 28.592 93.728 28.816 93.728 29.008     L93.728 29.104 L92.912 29.536 C92.912 29.696 92.944 29.824 93.008 29.92     C93.264 29.952 93.568 29.92 93.92 29.824 C93.888 29.376 94.096 28.72 94.544     27.856 zM102.368 38.8 C102.304 38.512 102.032 38.352 101.552 38.32 L101.792     39.184 C101.824 39.216 101.856 39.232 101.888 39.232 C102.016 39.232 102.176     39.088 102.368 38.8 zM94.112 31.888 C94.112 31.6 93.968 31.456 93.68 31.456     C93.296 31.456 93.104 31.632 93.104 31.984 C93.104 32.304 93.264 32.464 93.584     32.464 C93.936 32.464 94.112 32.272 94.112 31.888 zM93.968 36.448 C93.968     36.192 93.912 36.04 93.8 35.992 C93.688 35.944 93.552 35.872 93.392 35.776     C93.072 35.936 92.912 36.224 92.912 36.64 C92.912 36.736 92.96 36.848 93.056     36.976 L93.344 36.976 C93.76 36.656 93.968 36.48 93.968 36.448 z"
       id="path75" />
    <path
       transform="translate(43 21) translate(-15 -4) translate(37 2) translate(46 -2) translate(-18 -2) translate(-120 18) translate(0 -1) translate(0 -1) translate(0 -1) translate(0 -1) translate(0 -1) translate(0 -13) translate(11 1) translate(-1 0) translate(-1 0) translate(0 1) translate(0 1) translate(0 1) translate(0 1) translate(-1 0) translate(-1 0) translate(-1 0) translate(-1 0) translate(-1 0) translate(-1 0) translate(-1 0) translate(-1 0) translate(-1 0) translate(-1 0)"
       d="M145.328 27.808 C144.944 28.064 144.464 28.512 143.888 29.152 L143.936 29.488 L144.8     30.112 L144.848 30.208 L144.08 30.832 C144.272 31.312 144.368 31.904 144.368     32.608 C144.368 33.952 143.952 35.376 143.12 36.88 C142.288 37.136 141.472     37.392 140.672 37.648 C139.808 38 139.44 38.656 139.568 39.616 L136.88 39.52     C135.984 39.52 135.168 39.648 134.432 39.904 C133.6 39.648 132.464 39.52     131.024 39.52 C130.48 39.52 129.536 39.6 128.192 39.76 C127.936 40.048 127.784     40.44 127.736 40.936 C127.688 41.432 127.632 41.888 127.568 42.304 C128.24     43.104 129.088 43.424 130.112 43.264 L130.016 44.608 L130.16 45.424 L131.168     46.048 L132.416 45.616 L133.04 46.048 L132.56 46.864 L132.944 47.296 L133.808     46.864 L133.808 46.192 L133.952 46.144 C134.464 46.144 134.8 46.72 134.96     47.872 L134.192 49.12 L133.712 48.736 L132.512 49.072 L131.936 47.824 C131.648     48.528 131.552 49.12 131.648 49.6 C131.328 49.024 130.832 48.8 130.16     48.928 L129.68 48.544 L129.728 48.208 L128.48 47.968 L128.144 47.152 L127.952     47.344 C127.888 47.312 127.736 47.272 127.496 47.224 C127.256 47.176 127.136     47.104 127.136 47.008 L127.424 46.72 L127.232 45.808 L127.952 44.944 L129.056     45.52 L129.488 45.328 L129.776 44.944 L129.44 43.936 L129.008 43.744     L128.384 43.792 L127.808 44.272 L126.416 43.552 L126.032 43.648 C126.096 43.52     126.304 43.296 126.656 42.976 C127.008 42.656 127.184 42.368 127.184 42.112     L126.56 41.008 L127.088 40.24 C127.088 39.984 126.88 39.728 126.464 39.472     C126.048 39.216 125.696 39.072 125.408 39.04 L125.456 38.896 L126.176 38.848     L126.944 38.32 L126.272 37.552 L125.36 37.792 C124.784 35.488 124.496 32.16     124.496 27.808 C124.496 27.776 124.576 27.2 124.736 26.08 L125.216 26.176     L125.936 25.792 L125.6 25.216 L124.784 25.456 L125.12 24.64 C125.12 24.384     124.952 24.048 124.616 23.632 C124.28 23.216 124.112 22.864 124.112 22.576 L124.688     21.616 C123.568 21.296 122.448 20.992 121.328 20.704 C120.624 20.416     120.272 19.36 120.272 17.536 C121.008 17.44 121.632 17.392 122.144 17.392 C123.008     17.392 124.128 17.472 125.504 17.632 C127.2 17.856 128.304 17.984 128.816     18.016 L129.104 18.256 L128.048 19.312 L128.96 19.408 L129.632 18.448     L129.536 18.016 C129.92 17.92 130.72 17.808 131.936 17.68 C132.928 17.552 133.712     17.344 134.288 17.056 L135.104 17.728 L136.064 17.536 L136.592 17.056     L137.552 17.632 L138.32 17.584 L138.944 17.728 C138.976 17.792 138.992 18.336     138.992 19.36 L139.136 20.08 L139.664 20.416 L140.384 20.128 L140.576 19.168     L140.24 18.976 L140.48 18.4 L140.624 18.352 L141.248 19.84 L142.016 20.272     L142.448 20.224 L143.408 20.464 L144.272 22.384 L143.936 24.256 C143.936 24.768     144.24 25.184 144.848 25.504 L144.176 26.368 L144.032 27.136 zM125.792     43.264 L125.36 43.264 L125.36 42.928 L125.792 42.928 zM126.704 47.296 L126.368     47.296 L126.368 46.624 L126.704 46.624 zM126.704 46.288 C126.544 46.288     126.4 46.224 126.272 46.096 C126.112 46.224 126.032 46.576 126.032 47.152 C125.968     47.12 125.888 47.104 125.792 47.104 C125.6 47.104 125.376 47.208 125.12     47.416 C124.864 47.624 124.672 47.744 124.544 47.776 C124.8 47.968 125.024     48.032 125.216 47.968 C125.216 48.544 124.976 48.832 124.496 48.832 C124.336     48.832 124.016 48.576 123.536 48.064 L123.824 47.776 C123.408 47.68 123.152     47.44 123.056 47.056 C122.928 46.48 122.816 46.128 122.72 46 C122.848 45.936     123.28 45.76 124.016 45.472 C124.528 45.28 124.912 45.024 125.168 44.704     L125.648 46.24 L126.176 45.52 C126.24 45.712 126.416 45.808 126.704 45.808     zM122.288 47.44 C121.808 47.408 121.472 47.392 121.28 47.392 L121.52 46.576     L122.288 47.2 zM142.976 22.192 C142.976 21.616 142.704 21.328 142.16 21.328     C141.68 21.328 141.44 21.552 141.44 22 C141.44 22.48 141.68 22.72 142.16 22.72     C142.544 22.72 142.8 22.592 142.928 22.336 zM131.648 19.648 C131.584 19.328     131.328 19.168 130.88 19.168 C130.432 19.168 130.208 19.328 130.208 19.648     C130.272 19.936 130.392 20.144 130.568 20.272 C130.744 20.4 130.912 20.48     131.072 20.512 C131.232 20.512 131.344 20.408 131.408 20.2 C131.472 19.992 131.552     19.808 131.648 19.648 zM126.56 19.408 L126.56 19.12 C126.56 19.088 126.384     19.04 126.032 18.976 L125.984 19.072 C125.984 19.232 126.176 19.344 126.56     19.408 zM143.312 28.624 C143.312 28.208 143.208 27.616 143 26.848 C142.792     26.08 142.688 25.504 142.688 25.12 C142.688 24.672 142.784 24.272 142.976     23.92 C142.848 23.664 142.304 23.536 141.344 23.536 L140.528 23.296 L140.72     21.808 C140.72 21.584 140.416 21.392 139.808 21.232 C139.104 21.072 138.688     20.928 138.56 20.8 L138.752 20.272 C138.752 19.376 138.224 18.928 137.168     18.928 C136.24 18.928 135.248 19.296 134.192 20.032 C133.904 19.52 133.52 19.232     133.04 19.168 L132.608 19.456 L132.704 19.984 C132.704 20.464 132.32 20.832     131.552 21.088 C130.784 21.344 130.352 21.584 130.256 21.808 C130.128 22.256     130.016 23.056 129.92 24.208 C129.824 25.232 129.648 26.032 129.392 26.608     C129.232 26.352 128.88 26.224 128.336 26.224 L127.856 26.656 C127.856 27.008     128.144 27.2 128.72 27.232 C129.04 27.264 129.44 27.248 129.92 27.184     C129.76 27.568 129.808 28.032 130.064 28.576 L129.584 29.008 L129.056 28.432     L128.576 28.384 C128.384 28.512 128.192 28.816 128 29.296 L128.816 29.776 C128.304     30.224 128.048 30.688 128.048 31.168 C128.048 31.424 128.096 31.848     128.192 32.44 C128.288 33.032 128.304 33.52 128.24 33.904 L130.064 33.904 L130.064     35.824 C130.352 36.112 130.856 36.312 131.576 36.424 C132.296 36.536     132.784 36.672 133.04 36.832 C132.688 37.056 132.432 37.392 132.272 37.84 C132.528     38.48 133.008 38.8 133.712 38.8 L134.336 38.656 L134.288 38.32 L134.624     37.984 C135.008 38.176 135.424 38.272 135.872 38.272 C136.128 38.272 136.496     38.24 136.976 38.176 C137.456 38.112 137.808 38.08 138.032 38.08 L138.08     37.84 C137.952 37.616 137.776 37.264 137.552 36.784 C137.936 36.464 138.8 36.304     140.144 36.304 C140.496 36.304 140.624 35.776 140.528 34.72 C140.784 34.208     141.344 34.048 142.208 34.24 L142.784 33.808 L142.976 33.184 L142.448     32.464 C142.448 32.144 142.624 31.696 142.976 31.12 L142.544 30.544 C143.056     30 143.312 29.36 143.312 28.624 zM142.784 36.4 L142.784 35.728 L142.736 35.728     L142.544 35.728 C142.512 35.728 142.448 35.728 142.352 35.728 C142.256 35.728     142.192 35.728 142.16 35.728 L142.064 35.728 C141.808 35.728 141.68 35.824     141.68 36.016 C141.68 36.304 141.856 36.448 142.208 36.448 L142.448 36.448     C142.288 36.448 142.4 36.432 142.784 36.4 zM128.96 22.24 C128.96 22.176     128.944 22.112 128.912 22.048 C128.752 21.92 128.576 21.856 128.384 21.856 C128.16     21.856 128 21.968 127.904 22.192 C128.032 22.576 128.288 22.768 128.672     22.768 C128.864 22.64 128.96 22.464 128.96 22.24 zM129.152 24.016 C129.152     23.792 129.024 23.68 128.768 23.68 C128.736 23.68 128.672 23.696 128.576 23.728     C128.512 23.728 128.448 23.728 128.384 23.728 L128.384 24.208 C128.448     24.208 128.528 24.224 128.624 24.256 C128.688 24.256 128.752 24.256 128.816     24.256 L128.912 24.256 C129.072 24.256 129.152 24.176 129.152 24.016 zM126.608     21.712 L126.608 21.664 L125.888 21.664 L125.888 21.904 C125.92 21.904 125.984     21.92 126.08 21.952 C126.176 21.952 126.24 21.952 126.272 21.952 L126.368     21.952 C126.528 21.952 126.608 21.872 126.608 21.712 zM123.824 19.312 L123.68     19.264 L123.584 19.648 L123.728 19.648 zM122.384 19.84 C122.384 19.776     122.384 19.728 122.384 19.696 C122.032 19.472 121.808 19.36 121.712 19.36 L121.664     19.36 L121.664 20.08 L121.952 20.08 C122.24 20.08 122.384 20 122.384     19.84 zM126.752 24.304 C126.752 24.016 126.576 23.872 126.224 23.872 L126.128     23.872 C125.712 23.872 125.504 24.032 125.504 24.352 C125.504 24.48 125.6     24.592 125.792 24.688 C126.112 24.784 126.272 24.848 126.272 24.88 C126.592     24.816 126.752 24.624 126.752 24.304 zM126.704 26.416 C126.704 26.352 126.672     26.288 126.608 26.224 L126.176 26.224 C125.952 26.224 125.808 26.264 125.744     26.344 C125.68 26.424 125.648 26.48 125.648 26.512 C125.648 26.768 125.824     26.96 126.176 27.088 C126.528 27.024 126.704 26.8 126.704 26.416 zM126.56     28.672 C126.464 28.576 126.352 28.528 126.224 28.528 C125.936 28.528 125.76     28.656 125.696 28.912 C125.824 29.136 126.08 29.248 126.464 29.248 zM126.944     31.36 L126.944 31.216 C126.656 30.864 126.336 30.688 125.984 30.688 C125.664     30.688 125.504 30.848 125.504 31.168 C125.504 31.264 125.552 31.328 125.648     31.36 zM126.944 33.52 C126.944 33.2 126.688 33.04 126.176 33.04 C125.728     33.04 125.472 33.184 125.408 33.472 C125.76 33.792 126.128 33.952 126.512 33.952     C126.64 33.952 126.784 33.92 126.944 33.856 zM129.152 35.92 C129.152 35.696     128.976 35.584 128.624 35.584 C128.592 35.584 128.544 35.584 128.48 35.584     C128.416 35.616 128.368 35.632 128.336 35.632 C128.048 35.856 127.904 36.064     127.904 36.256 C127.904 36.384 128.032 36.448 128.288 36.448 C128.352 36.448     128.624 36.336 129.104 36.112 C129.136 36.08 129.152 36.016 129.152 35.92     zM130.64 38.224 C130.64 38.192 130.64 38.144 130.64 38.08 C130.608 37.984     130.584 37.92 130.568 37.888 C130.552 37.856 130.512 37.808 130.448 37.744     C130.224 37.84 130.096 38.032 130.064 38.32 C130.128 38.416 130.256 38.464     130.448 38.464 C130.576 38.464 130.64 38.384 130.64 38.224 zM129.488 37.984     C129.488 37.696 129.264 37.552 128.816 37.552 C128.4 37.552 128.144 37.6 128.048     37.696 C127.952 37.792 127.904 37.904 127.904 38.032 C127.904 38.32 128.16     38.512 128.672 38.608 C129.216 38.352 129.488 38.144 129.488 37.984 zM126.656     35.92 C126.656 35.568 126.464 35.392 126.08 35.392 C126.016 35.392 125.936     35.392 125.84 35.392 C125.744 35.616 125.664 35.808 125.6 35.968 C125.6     36.032 125.616 36.08 125.648 36.112 L126.608 36.112 C126.64 36.048 126.656     35.984 126.656 35.92 zM132.08 46.96 C131.408 46.48 130.96 46.24 130.736 46.24     C130.448 46.24 130.304 46.4 130.304 46.72 C130.304 47.328 130.704 47.648 131.504     47.68 C131.792 47.424 131.984 47.184 132.08 46.96 zM129.776 47.152 L129.776     47.104 L129.584 47.104 L129.584 47.152 zM129.776 26.512 L129.44 26.512     L129.44 26.176 L129.776 26.176 z"
       id="path77" />
  </g>
  <g
     transform="scale(0.892 0.892)"
     style="fill:rgb(255,255,255)"
     id="g93">
    <path
       transform="translate(55 11) translate(63 1) translate(18 1) translate(-31 -7) translate(-120 18) translate(0 -1) translate(0 -1) translate(0 -1) translate(0 -1) translate(0 -1) translate(0 -13) translate(11 1) translate(-14 0) translate(0 1) translate(0 1) translate(-1 0) translate(-1 0) translate(-1 0) translate(-1 0) translate(-1 0) translate(-1 0) translate(-1 0) translate(-1 0) translate(-1 0) translate(-1 0)"
       d="M42.98 6.64 C42.98 6.72 42.9733 6.81333 42.96 6.92 C42.8667 6.73333 42.76 6.64 42.64     6.64 C42.5733 6.64 42.4733 6.66333 42.34 6.71 C42.2067 6.75667 42.1067 6.78     42.04 6.78 L41.98 6.28 C42.0733 6.46667 42.1733 6.56 42.28 6.56 C42.3467     6.56 42.44 6.53333 42.56 6.48 C42.68 6.42667 42.7667 6.4 42.82 6.4 C42.9267     6.4 42.98 6.48 42.98 6.64 zM42.6 5.64 L42.44 5.62 C42.2933 5.62 42.1 5.75333     41.86 6.02 L41.6 5.78 C41.2 5.72667 40.6 5.7 39.8 5.7 C39 5.7 38.4 5.68 38     5.64 L37.62 5.92 L37.08 5.8 L36.8 6.08 C36.96 6.44 36.98 7.16 36.86 8.24 L37.02     8.46 L37.18 8.44 L37.62 8.56 L37.88 8.82 L37.8 9.26 L38.24 9.38 L38.44     9.22 L38.62 9.62 C38.1267 9.87333 37.48 10 36.68 10 C36.4533 10 36.1067 9.98667     35.64 9.96 C35.1733 9.93333 34.8267 9.92 34.6 9.92 L34.74 9.5 C35.0333 9.27333     35.2333 9.03333 35.34 8.78 C35.5267 8.36667 35.6533 8.10667 35.72 8 L35.72     7.3 L36.1 7.32 L36.38 7.2 L36.42 7.04 L36.08 6.72 L35.74 6.78 L35.64 6.48     C35.6533 6.48 35.7933 6.44667 36.06 6.38 C36.2333 6.35333 36.3467 6.28 36.4     6.16 C36.3467 5.84 36.32 5.56667 36.32 5.34 C36.32 4.58 36.46 3.9 36.74     3.3 L36.9 3.34 L37.28 3.02 L37.06 2.54 C37.06 2.40667 37.0867 2.20667 37.14     1.94 C37.18 1.74 37.1733 1.51333 37.12 1.26 L37.66 1.28 L37.84 1.2 L38.02 0.86     L37.96 0.7 C37.8 0.633333 37.5867 0.473333 37.32 0.22 L37.64 0.08 L37.96     -0.46 L37.8 -1 L38.22 -1 L38.34 -0.78 L38.52 -0.92 L38.56 -1.3 L38.36 -1.72     L38.02 -1.72 C38.3 -2.01333 38.4867 -2.26 38.58 -2.46 L38.5 -2.7 L38.32 -2.66     C38.36 -2.84667 38.5367 -2.97 38.85 -3.03 C39.1633 -3.09 39.3267 -3.21333     39.34 -3.4 L39.46 -3.42 C39.6467 -3.43333 39.8067 -3.33 39.94 -3.11 C40.0733     -2.89 40.14 -2.68 40.14 -2.48 C40.14 -2.37333 40.18 -2.23333 40.26 -2.06 C40.34     -1.88667 40.38 -1.74667 40.38 -1.64 L40.36 -1.44 L40.3 -1.46 L39.98 -1.24     L40.18 -0.86 L40.02 -0.24 L40.28 0.14 L40.82 0.06 C40.82 0.326667 40.89 0.74     41.03 1.3 C41.17 1.86 41.24 2.27333 41.24 2.54 C41.24 2.74 41.2133 2.92     41.16 3.08 L41.58 3.32 L41.84 3.22 L41.84 3.64 L41.16 3.64 L41.04 3.3 L40.66     3.3 L40.8 2.96 C40.7333 2.8 40.6467 2.54667 40.54 2.2 L40.76 1.82 C40.7333     1.7 40.6467 1.59333 40.5 1.5 C40.38 1.44667 40.2533 1.38667 40.12 1.32 L40.06     1.46 L39.66 1.28 C39.7267 1.16 39.7867 0.966667 39.84 0.7 C39.7467 0.513333     39.5667 0.42 39.3 0.42 C38.8733 0.42 38.6067 0.506667 38.5 0.68 C38.4333 0.786667     38.4 1.06667 38.4 1.52 L38.24 1.88 L37.86 1.7 L37.6 1.78 L37.54 2.22     L37.98 2.34 L38.26 1.96 L38.32 2.2 C38.2533 2.33333 38.1133 2.48667 37.9 2.66     C37.6867 2.83333 37.5533 2.97333 37.5 3.08 L37.84 3.46 L38.02 3.46 L38.02     3.52 C37.6733 3.69333 37.5 3.87333 37.5 4.06 L37.92 4.54 L38.1 4.46 L38.56     4.74 L38.46 5.08 L38.84 5.22 L38.98 4.84 L38.8 4.68 L39.28 4.56 C39.3067 4.73333     39.3367 4.91333 39.37 5.1 C39.4033 5.28667 39.5133 5.38 39.7 5.38 C39.7667     5.38 39.8333 5.27333 39.9 5.06 C39.9667 4.84667 40.0667 4.74 40.2 4.74 L40.52     5.22 L40.82 4.94 L40.74 4.62 C40.74 4.46 40.82 4.23333 40.98 3.94 C40.9933     3.96667 41.0067 4.00667 41.02 4.06 L41.28 4.4 L41.82 4.22 C41.9933 4.3     42.08 4.4 42.08 4.52 C42.08 4.56 42.06 4.64333 42.02 4.77 C41.98 4.89667 41.96     5 41.96 5.08 L41.98 5.22 zM45.4 9.74 L45.4 9.86 L40.76 9.86 C40.6933 9.63333     40.62 9.54667 40.54 9.6 L40.5 9.54 C40.62 9.48667 40.8 9.32 41.04 9.04 C41.2667     9.24 41.42 9.34 41.5 9.34 C41.6867 9.34 41.78 9.14667 41.78 8.76 C41.78     8.61333 41.8333 8.49333 41.94 8.4 C41.9933 8.4 42.0633 8.44667 42.15 8.54     C42.2367 8.63333 42.3067 8.68 42.36 8.68 C42.5467 8.68 42.64 8.56 42.64 8.32     C42.64 8.01333 42.5367 7.82667 42.33 7.76 C42.1233 7.69333 42.02 7.58667     42.02 7.44 C42.26 7.58667 42.4133 7.66 42.48 7.66 L42.6 7.64 L43.02 7.24 C43.1667     7.33333 43.24 7.46667 43.24 7.64 C43.24 7.70667 43.23 7.79333 43.21 7.9     C43.19 8.00667 43.18 8.08667 43.18 8.14 C43.18 8.31333 43.3033 8.4 43.55 8.4     C43.7967 8.4 43.95 8.51333 44.01 8.74 C44.07 8.96667 44.1267 9.18667 44.18     9.4 C44.3267 9.34667 44.48 9.24667 44.64 9.1 C44.6667 9.18 44.8133 9.26667     45.08 9.36 C45.2933 9.44 45.4 9.56667 45.4 9.74 zM39.64 -2.48 C39.64 -2.64     39.5467 -2.72 39.36 -2.72 C39.08 -2.72 38.94 -2.58 38.94 -2.3 C38.94 -2.08667     39.0733 -1.98 39.34 -1.98 C39.54 -1.98 39.64 -2.14667 39.64 -2.48 zM39.42     -1.36 L39.42 -1.4 C39.42 -1.44 39.42 -1.48667 39.42 -1.54 C39.3933 -1.55333     39.3667 -1.56 39.34 -1.56 C39.1933 -1.56 39.12 -1.48 39.12 -1.32 C39.12 -1.29333     39.12 -1.27333 39.12 -1.26 L39.34 -1.26 C39.3933 -1.26 39.42 -1.29333 39.42     -1.36 zM40.64 0.7 C40.64 0.646667 40.62 0.586667 40.58 0.52 C40.54 0.506667     40.4933 0.5 40.44 0.5 C40.32 0.5 40.1867 0.64 40.04 0.92 C40.0667 1.06667     40.18 1.14 40.38 1.14 C40.3933 1.14 40.4133 1.14 40.44 1.14 C40.5733 0.98     40.64 0.833333 40.64 0.7 zM39.62 -0.2 C39.62 -0.333333 39.54 -0.4 39.38 -0.4     C39.26 -0.4 39.18 -0.346667 39.14 -0.24 C39.1267 -0.146667 39.1467 -0.02 39.2     0.14 C39.2267 0.14 39.2533 0.14 39.28 0.14 C39.3067 0.14 39.4 0.0733333     39.56 -0.06 C39.6 -0.0866667 39.62 -0.133333 39.62 -0.2 zM38.76 -0.46 C38.76     -0.486667 38.7533 -0.513333 38.74 -0.54 L38.46 -0.62 L38.36 -0.18 C38.44 -0.0866667     38.4867 -0.04 38.5 -0.04 C38.6733 -0.04 38.76 -0.18 38.76 -0.46 zM41.78     4.98 C41.78 4.86 41.7133 4.8 41.58 4.8 L41.36 4.8 C41.2267 4.93333 41.16     5.06 41.16 5.18 C41.16 5.22 41.18 5.26667 41.22 5.32 C41.2467 5.32 41.2933     5.32 41.36 5.32 C41.4267 5.32 41.48 5.32 41.52 5.32 C41.6933 5.32 41.78 5.20667     41.78 4.98 zM42.52 9.02 C42.48 8.95333 42.44 8.92 42.4 8.92 C42.28 8.92     42.2 8.99333 42.16 9.14 C42.2133 9.20667 42.28 9.24 42.36 9.24 C42.44 9.24     42.4833 9.21667 42.49 9.17 C42.4967 9.12333 42.5067 9.07333 42.52 9.02 zM38.2     4.94 C38.2 4.86 38.14 4.82 38.02 4.82 C37.9 4.82 37.7867 4.91333 37.68 5.1     C37.6933 5.20667 37.7733 5.26 37.92 5.26 C37.9467 5.26 37.98 5.25333 38.02     5.24 C38.14 5.08 38.2 4.98 38.2 4.94 zM37.2 4 C37.16 3.96 37.0933 3.94 37 3.94     L36.84 3.94 C36.8267 3.94 36.7867 4.05333 36.72 4.28 C36.76 4.41333 36.8267     4.48 36.92 4.48 C37.04 4.48 37.1067 4.41 37.12 4.27 C37.1333 4.13 37.16 4.04     37.2 4 zM37.48 9.02 C37.4667 9.00667 37.3467 8.98667 37.12 8.96 L37.12 9.32     L37.34 9.32 C37.4333 9.26667 37.48 9.16667 37.48 9.02 zM36.64 8.2 C36.64     8.05333 36.5667 7.98 36.42 7.98 C36.3267 7.98 36.2 8.04667 36.04 8.18 C36.0267     8.20667 36.02 8.23333 36.02 8.26 C36.02 8.31333 36.1133 8.38 36.3 8.46 C36.5267     8.39333 36.64 8.30667 36.64 8.2 z"
       id="path81" />
    <path
       transform="translate(55 11) translate(63 1) translate(18 1) translate(-31 -7) translate(-120 18) translate(0 -1) translate(0 -1) translate(0 -1) translate(0 -1) translate(0 -1) translate(0 -13) translate(11 1) translate(-14 0) translate(0 1) translate(0 1) translate(-1 0) translate(-1 0) translate(-1 0) translate(-1 0) translate(-1 0) translate(-1 0) translate(-1 0) translate(-1 0) translate(-1 0) translate(-1 0)"
       d="M57.22 4.92 C57.06 5.02667 56.86 5.21333 56.62 5.48 L56.64 5.62 L57 5.88 L57.02 5.92     L56.7 6.18 C56.78 6.38 56.82 6.62667 56.82 6.92 C56.82 7.48 56.6467 8.07333     56.3 8.7 C55.9533 8.80667 55.6133 8.91333 55.28 9.02 C54.92 9.16667 54.7667     9.44 54.82 9.84 L53.7 9.8 C53.3267 9.8 52.9867 9.85333 52.68 9.96 C52.3333     9.85333 51.86 9.8 51.26 9.8 C51.0333 9.8 50.64 9.83333 50.08 9.9 C49.9733     10.02 49.91 10.1833 49.89 10.39 C49.87 10.5967 49.8467 10.7867 49.82 10.96     C50.1 11.2933 50.4533 11.4267 50.88 11.36 L50.84 11.92 L50.9 12.26 L51.32 12.52     L51.84 12.34 L52.1 12.52 L51.9 12.86 L52.06 13.04 L52.42 12.86 L52.42 12.58     L52.48 12.56 C52.6933 12.56 52.8333 12.8 52.9 13.28 L52.58 13.8 L52.38 13.64     L51.88 13.78 L51.64 13.26 C51.52 13.5533 51.48 13.8 51.52 14 C51.3867 13.76     51.18 13.6667 50.9 13.72 L50.7 13.56 L50.72 13.42 L50.2 13.32 L50.06 12.98     L49.98 13.06 C49.9533 13.0467 49.89 13.03 49.79 13.01 C49.69 12.99 49.64     12.96 49.64 12.92 L49.76 12.8 L49.68 12.42 L49.98 12.06 L50.44 12.3 L50.62     12.22 L50.74 12.06 L50.6 11.64 L50.42 11.56 L50.16 11.58 L49.92 11.78 L49.34     11.48 L49.18 11.52 C49.2067 11.4667 49.2933 11.3733 49.44 11.24 C49.5867 11.1067     49.66 10.9867 49.66 10.88 L49.4 10.42 L49.62 10.1 C49.62 9.99333 49.5333     9.88667 49.36 9.78 C49.1867 9.67333 49.04 9.61333 48.92 9.6 L48.94 9.54 L49.24     9.52 L49.56 9.3 L49.28 8.98 L48.9 9.08 C48.66 8.12 48.54 6.73333 48.54     4.92 C48.54 4.90667 48.5733 4.66667 48.64 4.2 L48.84 4.24 L49.14 4.08 L49 3.84     L48.66 3.94 L48.8 3.6 C48.8 3.49333 48.73 3.35333 48.59 3.18 C48.45 3.00667     48.38 2.86 48.38 2.74 L48.62 2.34 C48.1533 2.20667 47.6867 2.08 47.22 1.96     C46.9267 1.84 46.78 1.4 46.78 0.64 C47.0867 0.6 47.3467 0.58 47.56 0.58 C47.92     0.58 48.3867 0.613333 48.96 0.68 C49.6667 0.773333 50.1267 0.826667 50.34     0.84 L50.46 0.94 L50.02 1.38 L50.4 1.42 L50.68 1.02 L50.64 0.84 C50.8 0.8     51.1333 0.753333 51.64 0.7 C52.0533 0.646667 52.38 0.56 52.62 0.44 L52.96     0.72 L53.36 0.64 L53.58 0.44 L53.98 0.68 L54.3 0.66 L54.56 0.72 C54.5733 0.746667     54.58 0.973333 54.58 1.4 L54.64 1.7 L54.86 1.84 L55.16 1.72 L55.24 1.32     L55.1 1.24 L55.2 1 L55.26 0.98 L55.52 1.6 L55.84 1.78 L56.02 1.76 L56.42 1.86     L56.78 2.66 L56.64 3.44 C56.64 3.65333 56.7667 3.82667 57.02 3.96 L56.74     4.32 L56.68 4.64 zM49.08 11.36 L48.9 11.36 L48.9 11.22 L49.08 11.22 zM49.46     13.04 L49.32 13.04 L49.32 12.76 L49.46 12.76 zM49.46 12.62 C49.3933 12.62 49.3333     12.5933 49.28 12.54 C49.2133 12.5933 49.18 12.74 49.18 12.98 C49.1533     12.9667 49.12 12.96 49.08 12.96 C49 12.96 48.9067 13.0033 48.8 13.09 C48.6933     13.1767 48.6133 13.2267 48.56 13.24 C48.6667 13.32 48.76 13.3467 48.84 13.32     C48.84 13.56 48.74 13.68 48.54 13.68 C48.4733 13.68 48.34 13.5733 48.14     13.36 L48.26 13.24 C48.0867 13.2 47.98 13.1 47.94 12.94 C47.8867 12.7 47.84     12.5533 47.8 12.5 C47.8533 12.4733 48.0333 12.4 48.34 12.28 C48.5533 12.2 48.7133     12.0933 48.82 11.96 L49.02 12.6 L49.24 12.3 C49.2667 12.38 49.34 12.42     49.46 12.42 zM47.62 13.1 C47.42 13.0867 47.28 13.08 47.2 13.08 L47.3 12.74     L47.62 13 zM56.24 2.58 C56.24 2.34 56.1267 2.22 55.9 2.22 C55.7 2.22 55.6 2.31333     55.6 2.5 C55.6 2.7 55.7 2.8 55.9 2.8 C56.06 2.8 56.1667 2.74667 56.22     2.64 zM51.52 1.52 C51.4933 1.38667 51.3867 1.32 51.2 1.32 C51.0133 1.32 50.92     1.38667 50.92 1.52 C50.9467 1.64 50.9967 1.72667 51.07 1.78 C51.1433 1.83333     51.2133 1.86667 51.28 1.88 C51.3467 1.88 51.3933 1.83667 51.42 1.75 C51.4467     1.66333 51.48 1.58667 51.52 1.52 zM49.4 1.42 L49.4 1.3 C49.4 1.28667 49.3267     1.26667 49.18 1.24 L49.16 1.28 C49.16 1.34667 49.24 1.39333 49.4 1.42 zM56.38     5.26 C56.38 5.08667 56.3367 4.84 56.25 4.52 C56.1633 4.2 56.12 3.96 56.12     3.8 C56.12 3.61333 56.16 3.44667 56.24 3.3 C56.1867 3.19333 55.96 3.14     55.56 3.14 L55.22 3.04 L55.3 2.42 C55.3 2.32667 55.1733 2.24667 54.92 2.18 C54.6267     2.11333 54.4533 2.05333 54.4 2 L54.48 1.78 C54.48 1.40667 54.26 1.22     53.82 1.22 C53.4333 1.22 53.02 1.37333 52.58 1.68 C52.46 1.46667 52.3 1.34667     52.1 1.32 L51.92 1.44 L51.96 1.66 C51.96 1.86 51.8 2.01333 51.48 2.12 C51.16     2.22667 50.98 2.32667 50.94 2.42 C50.8867 2.60667 50.84 2.94 50.8 3.42 C50.76     3.84667 50.6867 4.18 50.58 4.42 C50.5133 4.31333 50.3667 4.26 50.14 4.26     L49.94 4.44 C49.94 4.58667 50.06 4.66667 50.3 4.68 C50.4333 4.69333 50.6     4.68667 50.8 4.66 C50.7333 4.82 50.7533 5.01333 50.86 5.24 L50.66 5.42 L50.44     5.18 L50.24 5.16 C50.16 5.21333 50.08 5.34 50 5.54 L50.34 5.74 C50.1267 5.92667     50.02 6.12 50.02 6.32 C50.02 6.42667 50.04 6.60333 50.08 6.85 C50.12 7.09667     50.1267 7.3 50.1 7.46 L50.86 7.46 L50.86 8.26 C50.98 8.38 51.19 8.46333     51.49 8.51 C51.79 8.55667 51.9933 8.61333 52.1 8.68 C51.9533 8.77333 51.8467     8.91333 51.78 9.1 C51.8867 9.36667 52.0867 9.5 52.38 9.5 L52.64 9.44 L52.62     9.3 L52.76 9.16 C52.92 9.24 53.0933 9.28 53.28 9.28 C53.3867 9.28 53.54     9.26667 53.74 9.24 C53.94 9.21333 54.0867 9.2 54.18 9.2 L54.2 9.1 C54.1467 9.00667     54.0733 8.86 53.98 8.66 C54.14 8.52667 54.5 8.46 55.06 8.46 C55.2067     8.46 55.26 8.24 55.22 7.8 C55.3267 7.58667 55.56 7.52 55.92 7.6 L56.16 7.42     L56.24 7.16 L56.02 6.86 C56.02 6.72667 56.0933 6.54 56.24 6.3 L56.06 6.06 C56.2733     5.83333 56.38 5.56667 56.38 5.26 zM56.16 8.5 L56.16 8.22 L56.14 8.22     L56.06 8.22 C56.0467 8.22 56.02 8.22 55.98 8.22 C55.94 8.22 55.9133 8.22 55.9     8.22 L55.86 8.22 C55.7533 8.22 55.7 8.26 55.7 8.34 C55.7 8.46 55.7733 8.52     55.92 8.52 L56.02 8.52 C55.9533 8.52 56 8.51333 56.16 8.5 zM50.4 2.6 C50.4     2.57333 50.3933 2.54667 50.38 2.52 C50.3133 2.46667 50.24 2.44 50.16 2.44 C50.0667     2.44 50 2.48667 49.96 2.58 C50.0133 2.74 50.12 2.82 50.28 2.82 C50.36     2.76667 50.4 2.69333 50.4 2.6 zM50.48 3.34 C50.48 3.24667 50.4267 3.2 50.32     3.2 C50.3067 3.2 50.28 3.20667 50.24 3.22 C50.2133 3.22 50.1867 3.22 50.16     3.22 L50.16 3.42 C50.1867 3.42 50.22 3.42667 50.26 3.44 C50.2867 3.44 50.3133     3.44 50.34 3.44 L50.38 3.44 C50.4467 3.44 50.48 3.40667 50.48 3.34 zM49.42     2.38 L49.42 2.36 L49.12 2.36 L49.12 2.46 C49.1333 2.46 49.16 2.46667 49.2 2.48     C49.24 2.48 49.2667 2.48 49.28 2.48 L49.32 2.48 C49.3867 2.48 49.42 2.44667     49.42 2.38 zM48.26 1.38 L48.2 1.36 L48.16 1.52 L48.22 1.52 zM47.66 1.6 C47.66     1.57333 47.66 1.55333 47.66 1.54 C47.5133 1.44667 47.42 1.4 47.38 1.4     L47.36 1.4 L47.36 1.7 L47.48 1.7 C47.6 1.7 47.66 1.66667 47.66 1.6 zM49.48 3.46     C49.48 3.34 49.4067 3.28 49.26 3.28 L49.22 3.28 C49.0467 3.28 48.96 3.34667     48.96 3.48 C48.96 3.53333 49 3.58 49.08 3.62 C49.2133 3.66 49.28 3.68667     49.28 3.7 C49.4133 3.67333 49.48 3.59333 49.48 3.46 zM49.46 4.34 C49.46 4.31333     49.4467 4.28667 49.42 4.26 L49.24 4.26 C49.1467 4.26 49.0867 4.27667 49.06     4.31 C49.0333 4.34333 49.02 4.36667 49.02 4.38 C49.02 4.48667 49.0933 4.56667     49.24 4.62 C49.3867 4.59333 49.46 4.5 49.46 4.34 zM49.4 5.28 C49.36 5.24     49.3133 5.22 49.26 5.22 C49.14 5.22 49.0667 5.27333 49.04 5.38 C49.0933 5.47333     49.2 5.52 49.36 5.52 zM49.56 6.4 L49.56 6.34 C49.44 6.19333 49.3067 6.12     49.16 6.12 C49.0267 6.12 48.96 6.18667 48.96 6.32 C48.96 6.36 48.98 6.38667     49.02 6.4 zM49.56 7.3 C49.56 7.16667 49.4533 7.1 49.24 7.1 C49.0533 7.1     48.9467 7.16 48.92 7.28 C49.0667 7.41333 49.22 7.48 49.38 7.48 C49.4333 7.48     49.4933 7.46667 49.56 7.44 zM50.48 8.3 C50.48 8.20667 50.4067 8.16 50.26 8.16     C50.2467 8.16 50.2267 8.16 50.2 8.16 C50.1733 8.17333 50.1533 8.18 50.14     8.18 C50.02 8.27333 49.96 8.36 49.96 8.44 C49.96 8.49333 50.0133 8.52 50.12     8.52 C50.1467 8.52 50.26 8.47333 50.46 8.38 C50.4733 8.36667 50.48 8.34 50.48     8.3 zM51.1 9.26 C51.1 9.24667 51.1 9.22667 51.1 9.2 C51.0867 9.16 51.0767     9.13333 51.07 9.12 C51.0633 9.10667 51.0467 9.08667 51.02 9.06 C50.9267 9.1     50.8733 9.18 50.86 9.3 C50.8867 9.34 50.94 9.36 51.02 9.36 C51.0733 9.36 51.1     9.32667 51.1 9.26 zM50.62 9.16 C50.62 9.04 50.5267 8.98 50.34 8.98 C50.1667     8.98 50.06 9 50.02 9.04 C49.98 9.08 49.96 9.12667 49.96 9.18 C49.96 9.3 50.0667     9.38 50.28 9.42 C50.5067 9.31333 50.62 9.22667 50.62 9.16 zM49.44 8.3     C49.44 8.15333 49.36 8.08 49.2 8.08 C49.1733 8.08 49.14 8.08 49.1 8.08 C49.06     8.17333 49.0267 8.25333 49 8.32 C49 8.34667 49.0067 8.36667 49.02 8.38 L49.42     8.38 C49.4333 8.35333 49.44 8.32667 49.44 8.3 zM51.7 12.9 C51.42 12.7 51.2333     12.6 51.14 12.6 C51.02 12.6 50.96 12.6667 50.96 12.8 C50.96 13.0533 51.1267     13.1867 51.46 13.2 C51.58 13.0933 51.66 12.9933 51.7 12.9 zM50.74 12.98     L50.74 12.96 L50.66 12.96 L50.66 12.98 zM50.74 4.38 L50.6 4.38 L50.6 4.24     L50.74 4.24 z"
       id="path83" />
    <path
       transform="translate(55 11) translate(63 1) translate(18 1) translate(-31 -7) translate(-120 18) translate(0 -1) translate(0 -1) translate(0 -1) translate(0 -1) translate(0 -1) translate(0 -13) translate(11 1) translate(-14 0) translate(0 1) translate(0 1) translate(-1 0) translate(-1 0) translate(-1 0) translate(-1 0) translate(-1 0) translate(-1 0) translate(-1 0) translate(-1 0) translate(-1 0) translate(-1 0)"
       d="M68.8 8.98 C68.8 9.38 68.6233 9.7 68.27 9.94 C67.9167 10.18 67.5267 10.3 67.1 10.3     L66.8 10.26 C66.36 9.9 65.7533 9.72 64.98 9.72 C64.1533 9.72 63.5533 9.88     63.18 10.2 C63.0733 10.2 62.9233 10.17 62.73 10.11 C62.5367 10.05 62.3867 10.02     62.28 10.02 C61.2133 10.02 60.4733 9.76 60.06 9.24 C59.7933 8.92 59.5067     8.16667 59.2 6.98 C59.3733 6.87333 59.5133 6.62667 59.62 6.24 C59.7133 5.92     59.8933 5.76 60.16 5.76 C60.2533 5.76 60.36 5.76 60.48 5.76 C60.6933 5.58812     60.7333 5.37 60.6 5.10562 C60.6133 5.06604 60.6733 4.95365 60.78 4.76844 C60.86     4.62302 60.9 4.50406 60.9 4.41156 C60.9 4.04135 60.8533 3.78688 60.76     3.64813 C60.6667 3.50937 60.4467 3.36062 60.1 3.20188 L60.04 2.98375 C60.0933     2.81187 60.28 2.48802 60.6 2.01219 C60.8933 1.6024 61.04 1.33802 61.04 1.21906     C61.1733 1.13969 61.5733 1.1 62.24 1.1 C62.5733 1.1 62.8 0.966667 62.92     0.7 C63.16 0.7 63.5 0.646667 63.94 0.54 L64.1 0.96 L64.32 1.06 C64.4 1.06 64.5533     0.966667 64.78 0.78 C64.9533 0.98 65.1667 1.05333 65.42 1 L65.64 1.3     C65.9067 1.36667 66.12 1.57333 66.28 1.92 C66.4933 2.37333 66.6533 2.64667 66.76     2.74 L66.82 3.06 C66.82 3.22 66.7733 3.41333 66.68 3.64 C66.5733 3.93333     66.5133 4.12667 66.5 4.22 L66.6 4.5 L67.02 4.74 C67.02 5.00667 66.9933 5.40667     66.94 5.94 C66.8333 6.00667 66.68 6.05333 66.48 6.08 L66.42 6.3 C66.54     6.34 66.6633 6.38 66.79 6.42 C66.9167 6.46 67.0067 6.52667 67.06 6.62 L67 6.86     L66.6 6.82 L66.32 7 L66.28 7.14 C66.28 7.23333 66.39 7.3 66.61 7.34 C66.83     7.38 66.96 7.43333 67 7.5 L66.9 7.9 C66.9 8.27333 67.0867 8.59333 67.46 8.86     L67.42 9.02 L67.2 9.02 L67.18 9.16 C67.18 9.32 67.36 9.39333 67.72 9.38 L67.74     9.38 L68.12 9.06 L68.2 8.74 L68.12 8.66 L68.7 8.18 C68.7667 8.62 68.8     8.88667 68.8 8.98 zM63.56 0.78 C63.5333 0.74 63.5 0.72 63.46 0.72 C63.4467 0.72     63.42 0.726667 63.38 0.74 C63.3533 0.74 63.3333 0.74 63.32 0.74 L63.32 0.88     L63.5 0.88 C63.54 0.84 63.56 0.806667 63.56 0.78 zM66.02 3.98 C65.9933 3.95333     65.9667 3.94 65.94 3.94 L65.74 3.94 L65.74 4.14 L65.94 4.14 C65.9667     4.08667 65.9933 4.03333 66.02 3.98 zM65.32 3.14 C65.2667 3.04667 65.1933 2.89333     65.1 2.68 C64.9533 2.62667 64.8067 2.50667 64.66 2.32 C64.5667 2.16 64.4667     2.00667 64.36 1.86 L64.14 1.78 C64.0867 1.78 63.9933 1.83333 63.86 1.94     L62.94 2.02 C62.74 1.78 62.5733 1.66 62.44 1.66 C62.3733 1.66 62.2333 1.82667     62.02 2.16 C61.8067 2.49333 61.5867 2.64 61.36 2.6 C61.32 2.81333 61.3 3.1     61.3 3.46 C61.3 3.80667 61.3193 4.12 61.3578 4.4 L61.4734 4.44 C61.4993 4.44     61.5411 4.39333 61.5989 4.3 C61.6567 4.20667 61.7049 4.14667 61.7434 4.12     L61.84 4.24 L61.84 4.36 C61.84 4.70667 62.0267 4.88 62.4 4.88 C62.4133 4.88     62.61 4.78333 62.99 4.59 C63.37 4.39667 63.64 4.28667 63.8 4.26 C64.08 4.22     64.4533 4.12 64.92 3.96 C64.9333 3.81333 64.95 3.66667 64.97 3.52 C64.99 3.37333     65.0867 3.3 65.26 3.3 zM65.98 6.99219 C65.9667 6.93844 65.8833 6.87802     65.73 6.81094 C65.5767 6.74385 65.5 6.69021 65.5 6.65 C65.5 6.48896 65.6067     6.40844 65.82 6.40844 L65.94 6.36813 L65.94 6.04625 C65.78 5.93896 65.7 5.81812     65.7 5.68375 C65.7 5.65708 65.7733 5.44917 65.92 5.06 L65.88 5.06 C65.7733     5.04667 65.66 5.11635 65.54 5.26906 C65.42 5.42177 65.34 5.51208 65.3 5.54     C65.26 5.43333 65.1933 5.28 65.1 5.08 L64.94 5.06 C64.6867 5.06 64.4333 5.18     64.18 5.42 C64.0867 5.31333 63.98 5.26 63.86 5.26 C63.7933 5.26 63.6067     5.31333 63.3 5.42 C62.9667 5.80667 62.5733 6.06667 62.12 6.2 C61.6267 6.33333     61.3333 6.44 61.24 6.52 C61 6.74667 60.84 7.23333 60.76 7.98 C60.9733 8.27333     61.1 8.44 61.14 8.48 C61.3 8.65333 61.48 8.74 61.68 8.74 C62.0933 9.03333     62.7 9.18 63.5 9.18 C63.7133 9.18 64.1133 9.16667 64.7 9.14 C64.74 9.08667     64.7733 9.02667 64.8 8.96 C64.8 8.90667 64.7833 8.83333 64.75 8.74 C64.7167     8.64667 64.7 8.57333 64.7 8.52 C64.7 8.38667 64.78 8.28 64.94 8.2 L65.18 8.26     C65.3267 8.26 65.4433 8.08557 65.53 7.73672 C65.6167 7.38786 65.76 7.18656     65.96 7.13281 zM60.52 6.54 L60.28 6.54 L60.28 6.74 L60.48 6.74 C60.4933 6.74     60.5067 6.67333 60.52 6.54 zM63.08 9.66 C62.9867 9.56667 62.9267 9.52 62.9     9.52 L62.86 9.52 L62.86 9.68 C62.9267 9.68 63 9.67333 63.08 9.66 z"
       id="path85" />
    <path
       transform="translate(55 11) translate(63 1) translate(18 1) translate(-31 -7) translate(-120 18) translate(0 -1) translate(0 -1) translate(0 -1) translate(0 -1) translate(0 -1) translate(0 -13) translate(11 1) translate(-14 0) translate(0 1) translate(0 1) translate(-1 0) translate(-1 0) translate(-1 0) translate(-1 0) translate(-1 0) translate(-1 0) translate(-1 0) translate(-1 0) translate(-1 0) translate(-1 0)"
       d="M79.98 3.3 C79.98 3.52667 79.8667 3.75333 79.64 3.98 C79.44 4.15333 79.2333 4.32667     79.02 4.5 C78.9667 4.34 78.8367 4.24 78.63 4.2 C78.4233 4.16 78.2267 4.12667     78.04 4.1 L78.18 3.8 L78.44 3.66 C78.4933 3.24667 78.52 3.04667 78.52 3.06     L78.46 2.78 L78.26 2.6 L78.06 2.7 L77.8 2.66 C77.76 2.58 77.74 2.38667 77.74     2.08 C77.74 1.92 77.6667 1.8 77.52 1.72 C77.3867 1.89333 77.2067 1.98 76.98     1.98 C76.8733 1.98 76.7267 1.95667 76.54 1.91 C76.3533 1.86333 76.2133 1.84     76.12 1.84 L75.82 1.94 L75.7 2.34 C75.1133 2.7 74.6867 2.88 74.42 2.88 L73.94     2.76 L73.74 2.96 L73.72 3.16 L74.28 3.56 C73.9733 3.56 73.7933 3.78333     73.74 4.23 C73.6867 4.67667 73.5 4.86667 73.18 4.8 L73.06 5.06 C73.1133 5.14     73.2533 5.19667 73.48 5.23 C73.7067 5.26333 73.82 5.32667 73.82 5.42 L73.74     5.7 L73.6 5.68 C73.4 5.68 73.2333 5.76667 73.1 5.94 L73.16 6.2 C73.5067 6.42667     73.7333 6.63333 73.84 6.82 C73.9467 7.00667 74.0067 7.29333 74.02 7.68     L74.04 7.88 C74.3467 7.94667 74.8 8.08667 75.4 8.3 L75.18 8.52 L75.56 8.78     L75.66 8.78 L75.76 8.68 L75.78 8.5 L75.6 8.32 L75.82 8.2 L75.96 8.38 L75.84     8.7 L76.32 8.84 L76.52 8.78 L76.7 8.5 C76.86 8.66 77.0333 8.75333 77.22 8.78     L77.4 8.44 L77.34 8.32 L77.38 8.28 L77.62 8.3 L77.64 8.52 L78.02 8.64 L78.32     8.56 L78.52 8.18 C78.6533 8.11333 78.8467 7.87333 79.1 7.46 C79.3 7.11333     79.5067 6.94667 79.72 6.96 L79.96 6.98 C79.9733 7.11333 79.8667 7.22667 79.64     7.32 C79.4133 7.41333 79.3067 7.52 79.32 7.64 L79.32 7.76 C79.4667 7.81333     79.5733 7.93333 79.64 8.12 C79.5467 8.32 79.42 8.64 79.26 9.08 C78.9533 9.17333     78.69 9.32333 78.47 9.53 C78.25 9.73667 78.06 9.87333 77.9 9.94 C77.5933     10.0733 77.0867 10.14 76.38 10.14 C75.5 10.14 74.8733 9.89333 74.5 9.4 L74.12     9.46 C73.4533 8.75333 73.0533 8.18 72.92 7.74 C72.7733 7.23333 72.6333 6.9     72.5 6.74 C72.3667 6.58 72.2933 6.42667 72.28 6.28 L72.74 6.16 L72.64 5.86     C72.4 5.87333 72.2467 5.94 72.18 6.06 L72.02 5.5 C72.02 5.35333 72.0967 5.25     72.25 5.19 C72.4033 5.13 72.48 5.05333 72.48 4.96 L72.2 4.84 L72.1 4.92 L72.02     4.74 C72.02 4.63333 72.14 4.51667 72.38 4.39 C72.62 4.26333 72.74 4.14     72.74 4.02 C72.5933 3.84667 72.52 3.68 72.52 3.52 C72.52 3.37333 72.6567 3.28667     72.93 3.26 C73.2033 3.23333 73.34 3.13333 73.34 2.96 L73.34 2.92 L72.72     2.72 C73.0267 2.65333 73.2267 2.38667 73.32 1.92 C73.4133 1.52 73.6533 1.34667     74.04 1.4 C74.3467 0.72 75.1533 0.38 76.46 0.38 C76.82 0.38 77.0667 0.553333     77.2 0.9 C77.36 1.00667 77.46 1.06 77.5 1.06 C77.58 1.06 77.5733 0.94     77.48 0.7 C77.5867 0.7 77.6967 0.783333 77.81 0.95 C77.9233 1.11667 78.0333     1.20667 78.14 1.22 L78.52 0.94 C78.7333 0.953333 78.8833 1.17 78.97 1.59 C79.0567     2.01 79.2533 2.22 79.56 2.22 C79.84 2.64667 79.98 3.00667 79.98 3.3 zM79.58     2.82 L79.4 2.82 L79.4 2.94 L79.54 2.94 C79.5667 2.94 79.58 2.9 79.58 2.82     zM78.44 1.9 C78.3867 1.86 78.3133 1.84 78.22 1.84 C78.14 1.84 78.08 1.87333     78.04 1.94 C78.08 2.06 78.1467 2.12 78.24 2.12 C78.3733 2.12 78.44 2.04667     78.44 1.9 zM79.6 3.74 C79.6 3.72667 79.5933 3.70667 79.58 3.68 C79.5933 3.65333     79.6 3.63333 79.6 3.62 C79.6 3.54 79.56 3.5 79.48 3.5 C79.32 3.5 79.24     3.56 79.24 3.68 C79.24 3.77333 79.2933 3.82 79.4 3.82 C79.5333 3.82 79.6 3.79333     79.6 3.74 zM76.58 0.94 C76.58 0.86 76.5267 0.82 76.42 0.82 C76.3133 0.82     76.26 0.86 76.26 0.94 C76.26 0.953333 76.2733 0.98 76.3 1.02 L76.46 1.02     C76.4733 1.02 76.4867 1.02 76.5 1.02 C76.5533 1.02 76.58 0.993333 76.58 0.94     zM74.8 1.22 L74.8 1.12 C74.7867 1.10667 74.7667 1.1 74.74 1.1 L74.62 1.08     L74.62 1.22 zM74.14 2.06 C74.1133 1.99333 74.06 1.96 73.98 1.96 C73.82 1.96     73.7467 2.03333 73.76 2.18 L73.76 2.2 C73.8 2.24 73.8533 2.26 73.92 2.26 C73.9333     2.26 73.96 2.25333 74 2.24 C74.04 2.22667 74.0733 2.22 74.1 2.22 C74.1     2.15333 74.1133 2.1 74.14 2.06 zM78.94 8.62 L78.94 8.54 C78.94 8.47333 78.8733     8.44 78.74 8.44 C78.6333 8.44 78.58 8.48 78.58 8.56 C78.58 8.57333 78.5867     8.59333 78.6 8.62 zM73.32 4.06 C73.2933 4.03333 73.2467 3.99333 73.18 3.94     L73.18 4.16 L73.2 4.16 C73.2267 4.16 73.2667 4.12667 73.32 4.06 zM73.48 7.98     L73.48 7.96 L73.46 7.98 z"
       id="path87" />
    <path
       transform="translate(55 11) translate(63 1) translate(18 1) translate(-31 -7) translate(-120 18) translate(0 -1) translate(0 -1) translate(0 -1) translate(0 -1) translate(0 -1) translate(0 -13) translate(11 1) translate(-14 0) translate(0 1) translate(0 1) translate(-1 0) translate(-1 0) translate(-1 0) translate(-1 0) translate(-1 0) translate(-1 0) translate(-1 0) translate(-1 0) translate(-1 0) translate(-1 0)"
       d="M87.66 0.4 L87.48 0.34 L87.48 0.2 L87.66 0.12 zM94.42 9.72 L93.5 9.92 L93 9.56 L92.62     9.84 C92.4067 9.84 92.0633 9.86333 91.59 9.91 C91.1167 9.95667 90.7533     9.97333 90.5 9.96 L89.54 9.92 C89.5267 9.73333 89.3933 9.49333 89.14 9.2 L89.34     8.9 L89.24 8.68 L89.78 8.24 L89.86 8.26 L90.36 7.88 L90.9 8.16 L91.26 7.76     C91.1133 7.69333 90.8733 7.64667 90.54 7.62 L90.46 7.28 L90.68 7.34 C91.04     7.34 91.26 7.18 91.34 6.86 L91.06 6.52 L90.76 6.62 L90.76 6.72 L90.54 6.7     L90.4 6.58 C90.5867 6.46 90.7767 6.33667 90.97 6.21 C91.1633 6.08333 91.2867     5.92 91.34 5.72 L91.26 5.66 L90.92 5.9 L90.64 5.64 L90.54 5.26 L90.74 5.18     L91.18 5.48 L91.4 4.82 C91.2667 4.74 91.06 4.62667 90.78 4.48 C90.9133 4.2 91.0533     3.98 91.2 3.82 C91.0667 3.63333 90.8067 3.42 90.42 3.18 L90.42 3.12 L91.06     3.08 L91.22 2.92 L91.28 2.76 L90.94 2.4 L90.48 2.62 C90.3067 2.62 90.0933     2.52667 89.84 2.34 C89.5867 2.15333 89.3867 2.05333 89.24 2.04 C89.6267     2.01333 89.8867 1.92667 90.02 1.78 L90 1.64 C89.76 1.54667 89.37 1.49333 88.83     1.48 C88.29 1.46667 87.9733 1.42667 87.88 1.36 L87.66 1.54 L87.66 1.84 L87.3     1.84 L87.34 1.66 L87.2 1.4 L86.88 1.3 C86.68 1.60667 86.58 2.01333 86.58     2.52 L86.34 2.22 L85.94 2.34 C85.9133 2.60667 85.8733 3.00667 85.82 3.54 L85.42     3.76 L85.38 3.54 L85.2 3.46 L85.1 3.56 L85.1 3.72 L85.36 3.9 L85.46 3.8     C85.6333 3.94667 85.7667 4.14 85.86 4.38 C85.6867 4.43333 85.5 4.49 85.3 4.55     C85.1 4.61 84.98 4.72667 84.94 4.9 L85.4 5.2 L85.06 5.88 C85.1267 6.02667     85.3267 6.14667 85.66 6.24 C85.66 6.37333 85.5667 6.5 85.38 6.62 C85.1933 6.74     85.1 6.86 85.1 6.98 L85.38 7.38 L85.24 7.92 L85.48 8.16 L85.78 8.08 L86.3     8.38 L86.14 8.8 L86.62 9.04 L86.76 8.72 L86.48 8.48 L86.8 8.36 C86.8667 8.49333     86.9333 8.63667 87 8.79 C87.0667 8.94333 87.16 9.04667 87.28 9.1 L87.42     9.08 L87.6 8.82 L87.22 8.48 L87.68 8.32 L87.92 8.4 L87.72 8.7 L87.96 9.32     L87.72 9.64 C87.4533 9.68 87.1867 9.78 86.92 9.94 L86.6 9.82 L85.86 10 L85.46     9.72 C85.2867 9.74667 85.0533 9.76 84.76 9.76 L84.52 9.76 C83.84 9.76 83.3267     9.84 82.98 10 C82.7267 9.82667 82.56 9.62667 82.48 9.4 L82.14 9.82 C82.0467     9.62 82.0067 9.42 82.02 9.22 L82.04 9.08 L82.84 9.04 C82.7867 8.73333 82.7267     8.50667 82.66 8.36 C82.78 8.34667 83.2467 8.22667 84.06 8 L84.4 8.16 L84.58     7.96 L84.62 7.76 C84.3667 7.62667 84.1 7.54 83.82 7.5 C83.82 7.31333 83.9433     7.18333 84.19 7.11 C84.4367 7.03667 84.5867 6.94667 84.64 6.84 L84.62     6.72 C84.3 6.49333 84.0333 6.24667 83.82 5.98 L83.98 5.92 L84.48 6.1 L84.68     6 C84.68 5.65333 84.5733 5.48 84.36 5.48 C84.28 5.48 84.1933 5.49333 84.1 5.52     C84.02 5.48 83.98 5.44 83.98 5.4 C83.98 5.28 84.0733 5.16333 84.26 5.05     C84.4467 4.93667 84.54 4.82 84.54 4.7 L84.54 4.66 L83.98 4.4 C83.98 4.28 84.0767     4.16667 84.27 4.06 C84.4633 3.95333 84.56 3.84 84.56 3.72 C84.56 3.61333     84.5333 3.42333 84.48 3.15 C84.4267 2.87667 84.4 2.66 84.4 2.5 L84.3 2.26     L83.8 2.1 L84.28 1.86 L84.42 1.54 C84.38 1.40667 84.3533 1.33333 84.34 1.32     C84.3267 1.30667 84.26 1.25333 84.14 1.16 L83.94 1.14 L83.9 1.08 L84.26 0.84     L84.4 0.64 L84.34 0.5 L83.72 0.04 C83.84 -0.04 83.9933 -0.22 84.18 -0.5 L83.92     -0.44 C83.72 -0.6 83.5533 -0.946667 83.42 -1.48 C83.3267 -1.88 83.0867 -2.08     82.7 -2.08 C82.5933 -2.08 82.4667 -2.07333 82.32 -2.06 C81.8933 -2.36667     81.6467 -2.70667 81.58 -3.08 C81.7133 -3.21333 81.84 -3.29667 81.96 -3.33     C82.08 -3.36333 82.2267 -3.37333 82.4 -3.36 C82.6533 -3.33333 82.8133 -3.32     82.88 -3.32 L83.42 -3.54 C83.58 -3.44667 83.84 -3.36667 84.2 -3.3 C84.56 -3.23333     84.8133 -3.16 84.96 -3.08 L84.88 -2.64 L85.36 -2.28 L85.5 -2.3 C85.46     -2.20667 85.3167 -2.1 85.07 -1.98 C84.8233 -1.86 84.6933 -1.72 84.68 -1.56 L85.16     -1.24 L85.16 -1.18 C85.16 -1.00667 85.0267 -0.76 84.76 -0.44 L84.78 -0.32     C84.8867 -0.213333 85.0833 -0.136667 85.37 -0.09 C85.6567 -0.0433333 85.8533     0.0266667 85.96 0.12 C85.6667 0.333333 85.5133 0.633333 85.5 1.02 C85.6067     1.18 85.7233 1.35 85.85 1.53 C85.9767 1.71 86.1133 1.84667 86.26 1.94 L86.38     1.74 L86.18 1.2 L86.4 0.94 C86.7333 0.94 86.94 0.926667 87.02 0.9 C87.22     0.86 87.3667 0.733333 87.46 0.52 L87.6 0.78 L87.94 0.86 L88.2 0.8 L88.56 0.28     L88.54 0.44 C88.5533 0.613333 88.5667 0.71 88.58 0.73 C88.5933 0.75 88.66     0.813333 88.78 0.92 C88.9133 0.866667 88.9867 0.833333 89 0.82 C89.0133 0.806667     89.08 0.726667 89.2 0.58 L89.2 0.36 C89.3333 0.64 89.5267 0.796667 89.78     0.83 C90.0333 0.863333 90.3 0.893333 90.58 0.92 L90.9 1.2 L90.54 1.42 L90.5     1.72 C91.0067 2.04 91.5267 2.2 92.06 2.2 C91.74 2.28 91.54 2.46 91.46 2.74     L91.56 3.06 C91.8267 3.19333 92.0867 3.35333 92.34 3.54 L92.3 3.78 L91.8     3.46 L91.6 3.68 L91.88 4.34 L92.26 4.22 L92.46 4.46 L92.34 4.92 L92.48 5.44     L92.34 5.44 C92.02 5.42667 91.7733 5.52 91.6 5.72 L91.58 5.78 C91.58 6.08667     91.8467 6.23333 92.38 6.22 C92.4467 6.48667 92.48 6.76667 92.48 7.06 C92.48     7.19333 92.3767 7.34 92.17 7.5 C91.9633 7.66 91.8533 7.79333 91.84 7.9 C92.04     8.06 92.3933 8.17333 92.9 8.24 C93.2867 8.26667 93.6733 8.3 94.06 8.34 C93.9933     8.72667 93.96 8.96667 93.96 9.06 L93.98 9.22 L94.3 8.62 C94.3667 8.79333     94.4067 9.16 94.42 9.72 zM91.96 5.14 L91.88 4.52 C91.7867 4.52 91.74 4.6     91.74 4.76 C91.74 4.81333 91.7667 4.89 91.82 4.99 C91.8733 5.09 91.92 5.14     91.96 5.14 zM82.96 -2.34 L82.96 -2.52 C82.9467 -2.53333 82.9333 -2.54667 82.92     -2.56 C82.88 -2.50667 82.8467 -2.47333 82.82 -2.46 C82.86 -2.42 82.9067 -2.38     82.96 -2.34 zM85.42 0.2 L85.24 0.14 C85.28 0.153333 85.34 0.173333 85.42     0.2 zM92.18 7.18 C92.14 7.11333 92.12 7.04 92.12 6.96 L92.12 6.9 C92.12 6.87333     92.12 6.83 92.12 6.77 C92.12 6.71 92.12 6.66667 92.12 6.64 C92.1067 6.64     92.0933 6.64 92.08 6.64 C91.92 6.64 91.84 6.71333 91.84 6.86 L91.86 6.92     C91.9267 7.09333 92.0333 7.18 92.18 7.18 zM91.66 6.94 L91.66 6.92 L91.6 6.92     L91.6 6.94 zM84.44 -0.16 L84.34 -0.36 L84.32 -0.36 L84.32 -0.2 zM85.42 0.56     C85.3533 0.506667 85.32 0.42 85.32 0.3 L85.22 0.36 L84.98 0.52 L84.92 0.24     L84.88 0.48 C85 0.706667 85.08 0.82 85.12 0.82 L85.18 0.82 C85.22 0.833333 85.2467     0.84 85.26 0.84 C85.34 0.826667 85.3833 0.793333 85.39 0.74 C85.3967     0.686667 85.4067 0.626667 85.42 0.56 zM93.2 8.74 C93.1867 8.72667 93.16 8.72     93.12 8.72 C93.16 8.72 93.1267 8.72667 93.02 8.74 L93.02 8.96 L93.14 8.96 C93.18     8.93333 93.2 8.86 93.2 8.74 zM85.44 1.52 C85.44 1.41333 85.4067 1.36 85.34     1.36 C85.2067 1.34667 85.12 1.34 85.08 1.34 C85 1.34 84.96 1.40667 84.96     1.54 C84.96 1.60667 84.9767 1.65333 85.01 1.68 C85.0433 1.70667 85.0733 1.72     85.1 1.72 C85.2333 1.72 85.3467 1.65333 85.44 1.52 zM85.42 2.66 L85.42 2.52     C85.42 2.44 85.36 2.4 85.24 2.4 C85.1467 2.4 85.08 2.44 85.04 2.52 C85.1733     2.64 85.2667 2.7 85.32 2.7 C85.36 2.7 85.3933 2.68667 85.42 2.66 zM91.04     8.88 L91.04 8.76 C91.0267 8.72 91.0067 8.7 90.98 8.7 C90.9 8.7 90.86 8.74667     90.86 8.84 C90.86 8.85333 90.86 8.86667 90.86 8.88 zM83.48 8.72 C83.48 8.66667     83.4467 8.64 83.38 8.64 L83.36 8.64 C83.3333 8.64 83.2867 8.64667 83.22     8.66 L83.22 8.68 C83.22 8.77333 83.26 8.82 83.34 8.82 C83.42 8.79333 83.4667     8.76 83.48 8.72 z"
       id="path89" />
    <path
       transform="translate(55 11) translate(63 1) translate(18 1) translate(-31 -7) translate(-120 18) translate(0 -1) translate(0 -1) translate(0 -1) translate(0 -1) translate(0 -1) translate(0 -13) translate(11 1) translate(-14 0) translate(0 1) translate(0 1) translate(-1 0) translate(-1 0) translate(-1 0) translate(-1 0) translate(-1 0) translate(-1 0) translate(-1 0) translate(-1 0) translate(-1 0) translate(-1 0)"
       d="M104.4 6.9 C104.28 7.11333 104.16 7.22 104.04 7.22 C103.973 7.22 103.927 7.34667     103.9 7.6 C103.9 7.73333 103.893 7.87333 103.88 8.02 L103.68 8.4 L103.16 8.3     L102.88 8.50406 C102.92 8.70823 102.96 8.8851 103 9.03469 L102.86 9.3 L102.52     9.3 C102.173 9.28667 101.92 9.44625 101.76 9.77875 C101.707 9.90646 101.56     9.98307 101.32 10.0086 C101.08 10.0341 100.927 10.0979 100.86 10.2 C100.687     10.1467 100.46 10.12 100.18 10.12 L99.82 10.12 C99.3933 10.1071 99.0667 10.029     98.84 9.88562 L98.92 9.67094 L98.6 9.3 L98.32 9.3 C97.9333 9.3 97.5933     9.16 97.3 8.88 C96.7933 8.38667 96.5267 8.13333 96.5 8.12 C96.5 7.96 96.6133     7.79333 96.84 7.62 L96.68 7.4 C96.2933 7.30667 96.0533 7.18 95.96 7.02 C95.9333     6.96667 95.8533 6.63333 95.72 6.02 C95.8533 5.83333 95.92 5.64667 95.92     5.46 C95.92 5.3 95.8667 5.07333 95.76 4.78 C95.6533 4.48667 95.6 4.26 95.6     4.1 C95.6 3.87333 95.6933 3.66667 95.88 3.48 L95.8 3.18 C95.8 3.00667 95.95     2.84 96.25 2.68 C96.55 2.52 96.7 2.31333 96.7 2.06 C96.7 1.95333 96.68 1.82667     96.64 1.68 C96.9008 1.62667 97.0637 1.58667 97.1287 1.56 C97.2852 1.50667     97.4156 1.41333 97.52 1.28 L97.52 1.08 C97.52 0.84 97.7733 0.686667 98.28 0.62     C98.8933 0.553333 99.2333 0.493333 99.3 0.44 C99.6333 0.56 100.167 0.62     100.9 0.62 C101.513 0.62 101.933 0.7 102.16 0.86 C102.507 1.1 102.693 1.60667     102.72 2.38 L102.92 2.5 C103.08 2.47333 103.253 2.37333 103.44 2.2 L103.2     2.64 C103.32 2.78667 103.447 3.02 103.58 3.34 C103.687 3.51333 103.86 3.58 104.1     3.54 L104.28 4.18 L104.22 4.2 L103.94 4 L103.76 4.02 L103.7 4.44 C103.807     4.49333 103.92 4.55333 104.04 4.62 C104.16 4.68667 104.247 4.77333 104.3     4.88 L104.28 5.04 C104.067 5.12 103.917 5.19 103.83 5.25 C103.743 5.31 103.633     5.41333 103.5 5.56 L103.58 6 L103.24 6 L103.42 5.68 L103.3 5.4 L102.96 5.24     C102.773 5.32 102.483 5.38 102.09 5.42 C101.697 5.46 101.407 5.52 101.22     5.6 C101.127 5.46667 100.977 5.38 100.77 5.34 C100.563 5.3 100.367 5.26667 100.18     5.24 C100.02 5.33333 99.8733 5.47333 99.74 5.66 C99.4733 5.56667 99.0733     5.48667 98.54 5.42 C98.0067 5.35333 97.6067 5.27333 97.34 5.18 C97.1533 5.23333     97.05 5.37667 97.03 5.61 C97.01 5.84333 96.9933 6.06 96.98 6.26 L96.68     6.22 L96.56 6.32094 C96.56 6.42844 96.6567 6.5326 96.85 6.63344 C97.0433 6.73427     97.1267 6.85188 97.1 6.98625 C97.1933 7.22813 97.2867 7.46333 97.38 7.69187     C97.62 7.73229 97.8533 7.76594 98.08 7.79281 C98.1467 8.02115 98.3 8.32354     98.54 8.7 L98.82 8.7 L98.78 9.02 L99.08 8.78 C99.36 8.72667 99.7133 8.72     100.14 8.76 C100.7 8.81333 101.053 8.84 101.2 8.84 C101.8 8.84 102.253 8.70667     102.56 8.44 L102.48 8.16 C102.48 8.14667 102.547 7.95333 102.68 7.58 L103.12     7.66 L103.28 7.48 L102.92 6.98 C103.067 6.86 103.3 6.71333 103.62 6.54     C103.847 6.71333 104.087 6.76667 104.34 6.7 zM103.02 3.16 C102.98 3.12 102.927     3.1 102.86 3.1 C102.727 3.1 102.66 3.17333 102.66 3.32 C102.66 3.38667     102.693 3.42 102.76 3.42 C102.933 3.42 103.02 3.38 103.02 3.3 zM103.02 4.22     L103.02 4.2 L102.96 4.16 L102.96 4.22 zM98.36 1.42 C98.36 1.38 98.28 1.28667     98.12 1.14 C97.9867 1.26 97.92 1.35333 97.92 1.42 L97.96 1.48 C97.96 1.49333     98.06 1.52 98.26 1.56 C98.3267 1.52 98.36 1.47333 98.36 1.42 zM102.36 3.5     C102.36 3.39333 102.3 3.24333 102.18 3.05 C102.06 2.85667 102 2.7 102 2.58 C102     2.47333 102.04 2.37333 102.12 2.28 C101.92 2.09333 101.627 1.98667 101.24     1.96 C101.293 1.96 100.967 1.96 100.26 1.96 C100.233 1.90667 100.207 1.84     100.18 1.76 C100.18 1.77333 100.227 1.64667 100.32 1.38 C100.227 1.28667 100.12     1.24 100 1.24 L99.84 1.36 C99.84 1.41333 99.8567 1.49 99.89 1.59 C99.9233     1.69 99.94 1.76667 99.94 1.82 L99.86 2 C98.7533 2 98.0133 2.14 97.64 2.42     C97.48 2.22 97.3533 2.12 97.26 2.12 L97.14 2.14 C97.0733 2.22 97.04 2.34 97.04     2.5 C97.04 2.62 97.2467 2.66 97.66 2.62 C97.6867 2.68667 97.72 2.76667 97.76     2.86 C97.76 2.95333 97.68 3.04667 97.52 3.14 C97.32 3.24667 97.2067 3.32     97.18 3.36 C97.22 3.8 97.4133 4.02 97.76 4.02 C97.88 4.02 98.0533 4 98.28 3.96     C98.5067 3.92 98.68 3.9 98.8 3.9 C98.9867 3.9 99.1467 3.94542 99.28 4.03625     C99.0933 4.205 99 4.34781 99 4.46469 C99 4.58156 99.1533 4.64 99.46 4.64     C99.7533 4.64 99.96 4.51333 100.08 4.26 C100.133 4.43333 100.22 4.51333 100.34     4.5 L100.4 4.5 C100.413 4.35333 100.453 4.21333 100.52 4.08 L100.68 4.1     C100.733 4.1 100.803 4.08667 100.89 4.06 C100.977 4.03333 101.04 4.02 101.08     4.02 C101.187 4.02 101.28 4.08 101.36 4.2 C101.24 4.22667 101.08 4.30667 100.88     4.44 L100.92 4.5 L101.06 4.58 C101.14 4.55333 101.28 4.46 101.48 4.3 L101.6     4.42 C101.747 4.47333 101.867 4.5 101.96 4.5 C102.16 4.5 102.26 4.42 102.26     4.26 C102.26 4.20667 102.227 4.14333 102.16 4.07 C102.093 3.99667 102.06     3.94 102.06 3.9 C102.26 3.78 102.36 3.64667 102.36 3.5 zM96.58 3.42 C96.58     3.31333 96.5067 3.26 96.36 3.26 L96.22 3.26 L96.22 3.62 L96.36 3.62 C96.44     3.59333 96.4967 3.56667 96.53 3.54 C96.5633 3.51333 96.58 3.47333 96.58 3.42     zM101.72 9.50844 C101.72 9.36948 101.647 9.3 101.5 9.3 C101.327 9.3 101.24     9.36948 101.24 9.50844 C101.24 9.58427 101.277 9.62531 101.35 9.63156 C101.423     9.63781 101.493 9.64729 101.56 9.66 C101.573 9.66 101.593 9.66 101.62 9.66     C101.687 9.66 101.72 9.60948 101.72 9.50844 zM97.02 4.86 C97.02 4.78 96.9867     4.74 96.92 4.74 C96.9067 4.74 96.87 4.77 96.81 4.83 C96.75 4.89 96.6867 4.91333     96.62 4.9 L96.62 5 L96.62 5.08 C96.62 5.16 96.6667 5.2 96.76 5.2 C96.9333     5.2 97.02 5.08667 97.02 4.86 z"
       id="path91" />
  </g>
  <g
     transform="translate(-7 -9) translate(-120 18) translate(0 -1) translate(0 -1) translate(0 -1) translate(0 -1) translate(0 -1) translate(0 -13) translate(1 0) translate(1 0) translate(1 0) translate(1 0) translate(1 0) translate(1 0) translate(1 0) translate(-1 0) translate(-1 0) translate(-1 0) translate(-1 0) translate(-1 0) translate(-1 0) translate(-1 0) translate(-1 0) translate(-1 0) translate(-1 0) translate(130 9) scale(0.892 0.892) translate(-130 -9)"
     style="font-size:48"
     id="g3999">
    <g
       transform="translate(20 47) scale(0.443077 0.443077) translate(-20 -47) translate(58.6806 -81.25) translate(408.507 -6.77083) translate(345 47) scale(0.907893 0.907893) translate(-345 -47) translate(345 47) scale(0.957746 0.957746) translate(-345 -47) translate(345 47) scale(0.846561 0.846561) translate(-345 -47) translate(9.19811 52.1226)"
       id="g127">
      <g
         style="filter:url(#MyFilter)"
         id="g121">
        <title
           id="title95">Bench</title>
        <use
           xlink:href="#foot"
           x="56.5"
           y="213.5"
           id="use97" />
        <use
           xlink:href="#foot"
           x="276.5"
           y="213.5"
           id="use99" />
        <use
           xlink:href="#post"
           x="70"
           y="50"
           id="use101" />
        <use
           xlink:href="#post"
           x="290"
           y="50"
           id="use103" />
        <use
           xlink:href="#foot"
           x="40"
           y="160"
           id="use105" />
        <use
           xlink:href="#foot"
           x="260"
           y="160"
           id="use107" />
        <use
           xlink:href="#back"
           x="40"
           y="60"
           id="use109" />
        <use
           xlink:href="#back"
           x="40"
           y="80"
           id="use111" />
        <use
           xlink:href="#back"
           x="40"
           y="100"
           id="use113" />
        <use
           xlink:href="#seat"
           x="40"
           y="140"
           id="use115" />
        <use
           xlink:href="#seat"
           x="30"
           y="148"
           id="use117" />
        <use
           xlink:href="#seat"
           x="20"
           y="156"
           id="use119" />
      </g>
      <g
         id="g125">
        <use
           xlink:href="#box"
           x="225"
           y="140"
           id="use123" />
      </g>
    </g>
  </g>
  <image
     xlink:href="asf-logo.svg"
     width="75.82"
     height="23.191999"
     id="image69"
     x="136.60124"
     y="0.18396181" />
</svg>
